solid OpenSCAD_Model
  facet normal -1 0 0
    outer loop
      vertex 0.45 3 0
      vertex 0.45 4 6
      vertex 0.45 4 0
    endloop
  endfacet
  facet normal -1 -0 0
    outer loop
      vertex 0.45 4 6
      vertex 0.45 3 0
      vertex 0.45 3 6
    endloop
  endfacet
  facet normal 0 -1 0
    outer loop
      vertex 0 4 0
      vertex 0.45 4 6
      vertex 0 4 6
    endloop
  endfacet
  facet normal 0 -1 -0
    outer loop
      vertex 0.45 4 6
      vertex 0 4 0
      vertex 0.45 4 0
    endloop
  endfacet
  facet normal 0 1 -0
    outer loop
      vertex 0.45 3 0
      vertex 0 3 6
      vertex 0.45 3 6
    endloop
  endfacet
  facet normal 0 1 0
    outer loop
      vertex 0 3 6
      vertex 0.45 3 0
      vertex 0 3 0
    endloop
  endfacet
  facet normal 1 -0 0
    outer loop
      vertex 6.55 3 6
      vertex 6.55 4 0
      vertex 6.55 4 6
    endloop
  endfacet
  facet normal 1 0 0
    outer loop
      vertex 6.55 4 0
      vertex 6.55 3 6
      vertex 6.55 3 0
    endloop
  endfacet
  facet normal 0 -1 0
    outer loop
      vertex 6.55 4 0
      vertex 7 4 6
      vertex 6.55 4 6
    endloop
  endfacet
  facet normal 0 -1 -0
    outer loop
      vertex 7 4 6
      vertex 6.55 4 0
      vertex 7 4 0
    endloop
  endfacet
  facet normal 0 1 -0
    outer loop
      vertex 7 3 0
      vertex 6.55 3 6
      vertex 7 3 6
    endloop
  endfacet
  facet normal 0 1 0
    outer loop
      vertex 6.55 3 6
      vertex 7 3 0
      vertex 6.55 3 0
    endloop
  endfacet
  facet normal 1 -0 0
    outer loop
      vertex 1 1 6
      vertex 1 6 5
      vertex 1 6 6
    endloop
  endfacet
  facet normal 1 0 0
    outer loop
      vertex 1 6 5
      vertex 1 1 6
      vertex 1 1 5
    endloop
  endfacet
  facet normal -1 0 0
    outer loop
      vertex 6 1 5
      vertex 6 6 6
      vertex 6 6 5
    endloop
  endfacet
  facet normal -1 -0 0
    outer loop
      vertex 6 6 6
      vertex 6 1 5
      vertex 6 1 6
    endloop
  endfacet
  facet normal 0 0 1
    outer loop
      vertex 4.3368 4.41869 5
      vertex 6 6 5
      vertex 4.37172 4.52618 5
    endloop
  endfacet
  facet normal 0 0 1
    outer loop
      vertex 6 1 5
      vertex 4.3929 2.3628 5
      vertex 4.4 2.25 5
    endloop
  endfacet
  facet normal 0 0 1
    outer loop
      vertex 6 6 5
      vertex 4.3368 4.41869 5
      vertex 6 1 5
    endloop
  endfacet
  facet normal 0 0 1
    outer loop
      vertex 6 1 5
      vertex 4.37172 2.47382 5
      vertex 4.3929 2.3628 5
    endloop
  endfacet
  facet normal -0 0 1
    outer loop
      vertex 4.3368 2.58131 5
      vertex 6 1 5
      vertex 4.3368 4.41869 5
    endloop
  endfacet
  facet normal 0 0 1
    outer loop
      vertex 6 1 5
      vertex 4.3368 2.58131 5
      vertex 4.37172 2.47382 5
    endloop
  endfacet
  facet normal -0 0 1
    outer loop
      vertex 4.28868 4.31642 5
      vertex 4.3368 2.58131 5
      vertex 4.3368 4.41869 5
    endloop
  endfacet
  facet normal 0 0 1
    outer loop
      vertex 4.28868 4.31642 5
      vertex 4.28868 2.68358 5
      vertex 4.3368 2.58131 5
    endloop
  endfacet
  facet normal -0 0 1
    outer loop
      vertex 4.22812 4.22099 5
      vertex 4.28868 2.68358 5
      vertex 4.28868 4.31642 5
    endloop
  endfacet
  facet normal 0 0 1
    outer loop
      vertex 4.22812 4.22099 5
      vertex 4.22812 2.77901 5
      vertex 4.28868 2.68358 5
    endloop
  endfacet
  facet normal -0 0 1
    outer loop
      vertex 4.15607 4.13391 5
      vertex 4.22812 2.77901 5
      vertex 4.22812 4.22099 5
    endloop
  endfacet
  facet normal 0 0 1
    outer loop
      vertex 4.15607 4.13391 5
      vertex 4.15607 2.86609 5
      vertex 4.22812 2.77901 5
    endloop
  endfacet
  facet normal -0 0 1
    outer loop
      vertex 4.07368 4.05654 5
      vertex 4.15607 2.86609 5
      vertex 4.15607 4.13391 5
    endloop
  endfacet
  facet normal 0 0 1
    outer loop
      vertex 4.07368 4.05654 5
      vertex 4.07368 2.94346 5
      vertex 4.15607 2.86609 5
    endloop
  endfacet
  facet normal -0 0 1
    outer loop
      vertex 3.98224 3.9901 5
      vertex 4.07368 2.94346 5
      vertex 4.07368 4.05654 5
    endloop
  endfacet
  facet normal 0 0 1
    outer loop
      vertex 3.98224 3.9901 5
      vertex 3.98224 3.00989 5
      vertex 4.07368 2.94346 5
    endloop
  endfacet
  facet normal -0 0 1
    outer loop
      vertex 3.8832 3.93566 5
      vertex 3.98224 3.00989 5
      vertex 3.98224 3.9901 5
    endloop
  endfacet
  facet normal 0 0 1
    outer loop
      vertex 3.8832 3.93566 5
      vertex 3.8832 3.06434 5
      vertex 3.98224 3.00989 5
    endloop
  endfacet
  facet normal -0 0 1
    outer loop
      vertex 3.77812 3.89405 5
      vertex 3.8832 3.06434 5
      vertex 3.8832 3.93566 5
    endloop
  endfacet
  facet normal 0 0 1
    outer loop
      vertex 3.77812 3.89405 5
      vertex 3.77812 3.10595 5
      vertex 3.8832 3.06434 5
    endloop
  endfacet
  facet normal -0 0 1
    outer loop
      vertex 3.66864 3.86594 5
      vertex 3.77812 3.10595 5
      vertex 3.77812 3.89405 5
    endloop
  endfacet
  facet normal 0 0 1
    outer loop
      vertex 3.66864 3.86594 5
      vertex 3.66864 3.13406 5
      vertex 3.77812 3.10595 5
    endloop
  endfacet
  facet normal -0 0 1
    outer loop
      vertex 3.55651 3.85178 5
      vertex 3.66864 3.13406 5
      vertex 3.66864 3.86594 5
    endloop
  endfacet
  facet normal 0 0 1
    outer loop
      vertex 3.55651 3.85178 5
      vertex 3.55651 3.14822 5
      vertex 3.66864 3.13406 5
    endloop
  endfacet
  facet normal -0 0 1
    outer loop
      vertex 3.44349 3.85178 5
      vertex 3.55651 3.14822 5
      vertex 3.55651 3.85178 5
    endloop
  endfacet
  facet normal 0 0 1
    outer loop
      vertex 3.44349 3.85178 5
      vertex 3.44349 3.14822 5
      vertex 3.55651 3.14822 5
    endloop
  endfacet
  facet normal 0 0 1
    outer loop
      vertex 3.33136 3.86594 5
      vertex 3.44349 3.14822 5
      vertex 3.44349 3.85178 5
    endloop
  endfacet
  facet normal 0 0 1
    outer loop
      vertex 3.33136 3.86594 5
      vertex 3.33136 3.13406 5
      vertex 3.44349 3.14822 5
    endloop
  endfacet
  facet normal 0 0 1
    outer loop
      vertex 3.22188 3.89405 5
      vertex 3.33136 3.13406 5
      vertex 3.33136 3.86594 5
    endloop
  endfacet
  facet normal 0 0 1
    outer loop
      vertex 3.22188 3.89405 5
      vertex 3.22188 3.10595 5
      vertex 3.33136 3.13406 5
    endloop
  endfacet
  facet normal 0 0 1
    outer loop
      vertex 3.1168 3.93566 5
      vertex 3.22188 3.10595 5
      vertex 3.22188 3.89405 5
    endloop
  endfacet
  facet normal 0 0 1
    outer loop
      vertex 3.1168 3.93566 5
      vertex 3.1168 3.06434 5
      vertex 3.22188 3.10595 5
    endloop
  endfacet
  facet normal 0 0 1
    outer loop
      vertex 3.01776 3.9901 5
      vertex 3.1168 3.06434 5
      vertex 3.1168 3.93566 5
    endloop
  endfacet
  facet normal 0 0 1
    outer loop
      vertex 3.01776 3.9901 5
      vertex 3.01776 3.00989 5
      vertex 3.1168 3.06434 5
    endloop
  endfacet
  facet normal 0 0 1
    outer loop
      vertex 2.92632 4.05654 5
      vertex 3.01776 3.00989 5
      vertex 3.01776 3.9901 5
    endloop
  endfacet
  facet normal 0 0 1
    outer loop
      vertex 2.92632 4.05654 5
      vertex 2.92632 2.94346 5
      vertex 3.01776 3.00989 5
    endloop
  endfacet
  facet normal 0 0 1
    outer loop
      vertex 2.84393 4.13391 5
      vertex 2.92632 2.94346 5
      vertex 2.92632 4.05654 5
    endloop
  endfacet
  facet normal 0 0 1
    outer loop
      vertex 2.84393 4.13391 5
      vertex 2.84393 2.86609 5
      vertex 2.92632 2.94346 5
    endloop
  endfacet
  facet normal 0 0 1
    outer loop
      vertex 2.77188 4.22099 5
      vertex 2.84393 2.86609 5
      vertex 2.84393 4.13391 5
    endloop
  endfacet
  facet normal 0 0 1
    outer loop
      vertex 2.77188 4.22099 5
      vertex 2.77188 2.77901 5
      vertex 2.84393 2.86609 5
    endloop
  endfacet
  facet normal 0 0 1
    outer loop
      vertex 2.71132 4.31642 5
      vertex 2.77188 2.77901 5
      vertex 2.77188 4.22099 5
    endloop
  endfacet
  facet normal 0 0 1
    outer loop
      vertex 2.71132 4.31642 5
      vertex 2.71132 2.68358 5
      vertex 2.77188 2.77901 5
    endloop
  endfacet
  facet normal 0 0 1
    outer loop
      vertex 2.6632 4.41869 5
      vertex 2.71132 2.68358 5
      vertex 2.71132 4.31642 5
    endloop
  endfacet
  facet normal 0 0 1
    outer loop
      vertex 2.6632 4.41869 5
      vertex 2.6632 2.58131 5
      vertex 2.71132 2.68358 5
    endloop
  endfacet
  facet normal 0 0 1
    outer loop
      vertex 1 6 5
      vertex 2.6632 4.41869 5
      vertex 2.62827 4.52618 5
    endloop
  endfacet
  facet normal 0 0 1
    outer loop
      vertex 2.6632 4.41869 5
      vertex 1 6 5
      vertex 2.6632 2.58131 5
    endloop
  endfacet
  facet normal 0 0 1
    outer loop
      vertex 1 6 5
      vertex 2.62827 4.52618 5
      vertex 2.6071 4.6372 5
    endloop
  endfacet
  facet normal 0 0 1
    outer loop
      vertex 1 1 5
      vertex 2.6632 2.58131 5
      vertex 1 6 5
    endloop
  endfacet
  facet normal 0 0 1
    outer loop
      vertex 1 6 5
      vertex 2.6071 4.6372 5
      vertex 2.6 4.75 5
    endloop
  endfacet
  facet normal 0 0 1
    outer loop
      vertex 2.6632 2.58131 5
      vertex 1 1 5
      vertex 2.62827 2.47382 5
    endloop
  endfacet
  facet normal 0 0 1
    outer loop
      vertex 4.3929 4.6372 5
      vertex 6 6 5
      vertex 4.4 4.75 5
    endloop
  endfacet
  facet normal 0 0 1
    outer loop
      vertex 6 6 5
      vertex 4.3929 4.8628 5
      vertex 4.4 4.75 5
    endloop
  endfacet
  facet normal 0 0 1
    outer loop
      vertex 6 6 5
      vertex 4.37172 4.97382 5
      vertex 4.3929 4.8628 5
    endloop
  endfacet
  facet normal 0 0 1
    outer loop
      vertex 6 6 5
      vertex 4.3368 5.08131 5
      vertex 4.37172 4.97382 5
    endloop
  endfacet
  facet normal 0 0 1
    outer loop
      vertex 6 6 5
      vertex 4.28868 5.18358 5
      vertex 4.3368 5.08131 5
    endloop
  endfacet
  facet normal 0 0 1
    outer loop
      vertex 6 6 5
      vertex 4.22812 5.27901 5
      vertex 4.28868 5.18358 5
    endloop
  endfacet
  facet normal 0 0 1
    outer loop
      vertex 6 6 5
      vertex 4.15607 5.36609 5
      vertex 4.22812 5.27901 5
    endloop
  endfacet
  facet normal 0 0 1
    outer loop
      vertex 6 6 5
      vertex 4.07368 5.44346 5
      vertex 4.15607 5.36609 5
    endloop
  endfacet
  facet normal 0 0 1
    outer loop
      vertex 6 6 5
      vertex 3.98224 5.50989 5
      vertex 4.07368 5.44346 5
    endloop
  endfacet
  facet normal 0 0 1
    outer loop
      vertex 6 6 5
      vertex 3.8832 5.56434 5
      vertex 3.98224 5.50989 5
    endloop
  endfacet
  facet normal 0 0 1
    outer loop
      vertex 6 6 5
      vertex 3.77812 5.60595 5
      vertex 3.8832 5.56434 5
    endloop
  endfacet
  facet normal 0 0 1
    outer loop
      vertex 6 6 5
      vertex 3.66864 5.63406 5
      vertex 3.77812 5.60595 5
    endloop
  endfacet
  facet normal 0 0 1
    outer loop
      vertex 6 6 5
      vertex 3.55651 5.64822 5
      vertex 3.66864 5.63406 5
    endloop
  endfacet
  facet normal 0 0 1
    outer loop
      vertex 6 6 5
      vertex 3.44349 5.64822 5
      vertex 3.55651 5.64822 5
    endloop
  endfacet
  facet normal -0 0 1
    outer loop
      vertex 1 6 5
      vertex 3.44349 5.64822 5
      vertex 6 6 5
    endloop
  endfacet
  facet normal 0 0 1
    outer loop
      vertex 2.62827 2.47382 5
      vertex 1 1 5
      vertex 2.6071 2.3628 5
    endloop
  endfacet
  facet normal 0 0 1
    outer loop
      vertex 2.6071 4.8628 5
      vertex 1 6 5
      vertex 2.6 4.75 5
    endloop
  endfacet
  facet normal 0 0 1
    outer loop
      vertex 2.62827 4.97382 5
      vertex 1 6 5
      vertex 2.6071 4.8628 5
    endloop
  endfacet
  facet normal 0 0 1
    outer loop
      vertex 2.6632 5.08131 5
      vertex 1 6 5
      vertex 2.62827 4.97382 5
    endloop
  endfacet
  facet normal 0 0 1
    outer loop
      vertex 2.71132 5.18358 5
      vertex 1 6 5
      vertex 2.6632 5.08131 5
    endloop
  endfacet
  facet normal 0 0 1
    outer loop
      vertex 2.77188 5.27901 5
      vertex 1 6 5
      vertex 2.71132 5.18358 5
    endloop
  endfacet
  facet normal 0 0 1
    outer loop
      vertex 2.84393 5.36609 5
      vertex 1 6 5
      vertex 2.77188 5.27901 5
    endloop
  endfacet
  facet normal 0 0 1
    outer loop
      vertex 2.92632 5.44346 5
      vertex 1 6 5
      vertex 2.84393 5.36609 5
    endloop
  endfacet
  facet normal 0 0 1
    outer loop
      vertex 3.01776 5.50989 5
      vertex 1 6 5
      vertex 2.92632 5.44346 5
    endloop
  endfacet
  facet normal 0 0 1
    outer loop
      vertex 3.1168 5.56434 5
      vertex 1 6 5
      vertex 3.01776 5.50989 5
    endloop
  endfacet
  facet normal 0 0 1
    outer loop
      vertex 3.22188 5.60595 5
      vertex 1 6 5
      vertex 3.1168 5.56434 5
    endloop
  endfacet
  facet normal 0 0 1
    outer loop
      vertex 3.33136 5.63406 5
      vertex 1 6 5
      vertex 3.22188 5.60595 5
    endloop
  endfacet
  facet normal 0 0 1
    outer loop
      vertex 3.44349 5.64822 5
      vertex 1 6 5
      vertex 3.33136 5.63406 5
    endloop
  endfacet
  facet normal 0 0 1
    outer loop
      vertex 4.37172 4.52618 5
      vertex 6 6 5
      vertex 4.3929 4.6372 5
    endloop
  endfacet
  facet normal -0 0 1
    outer loop
      vertex 4.3929 2.1372 5
      vertex 6 1 5
      vertex 4.4 2.25 5
    endloop
  endfacet
  facet normal -0 0 1
    outer loop
      vertex 4.37172 2.02618 5
      vertex 6 1 5
      vertex 4.3929 2.1372 5
    endloop
  endfacet
  facet normal -0 0 1
    outer loop
      vertex 4.3368 1.91869 5
      vertex 6 1 5
      vertex 4.37172 2.02618 5
    endloop
  endfacet
  facet normal -0 0 1
    outer loop
      vertex 4.28868 1.81642 5
      vertex 6 1 5
      vertex 4.3368 1.91869 5
    endloop
  endfacet
  facet normal -0 0 1
    outer loop
      vertex 4.22812 1.72099 5
      vertex 6 1 5
      vertex 4.28868 1.81642 5
    endloop
  endfacet
  facet normal -0 0 1
    outer loop
      vertex 4.15607 1.63391 5
      vertex 6 1 5
      vertex 4.22812 1.72099 5
    endloop
  endfacet
  facet normal -0 0 1
    outer loop
      vertex 4.07368 1.55654 5
      vertex 6 1 5
      vertex 4.15607 1.63391 5
    endloop
  endfacet
  facet normal -0 0 1
    outer loop
      vertex 3.98224 1.4901 5
      vertex 6 1 5
      vertex 4.07368 1.55654 5
    endloop
  endfacet
  facet normal -0 0 1
    outer loop
      vertex 3.8832 1.43566 5
      vertex 6 1 5
      vertex 3.98224 1.4901 5
    endloop
  endfacet
  facet normal -0 0 1
    outer loop
      vertex 3.77812 1.39405 5
      vertex 6 1 5
      vertex 3.8832 1.43566 5
    endloop
  endfacet
  facet normal -0 0 1
    outer loop
      vertex 3.66864 1.36594 5
      vertex 6 1 5
      vertex 3.77812 1.39405 5
    endloop
  endfacet
  facet normal -0 0 1
    outer loop
      vertex 3.55651 1.35178 5
      vertex 6 1 5
      vertex 3.66864 1.36594 5
    endloop
  endfacet
  facet normal -0 0 1
    outer loop
      vertex 3.44349 1.35178 5
      vertex 6 1 5
      vertex 3.55651 1.35178 5
    endloop
  endfacet
  facet normal 0 0 1
    outer loop
      vertex 1 1 5
      vertex 3.44349 1.35178 5
      vertex 3.33136 1.36594 5
    endloop
  endfacet
  facet normal 0 0 1
    outer loop
      vertex 2.6071 2.3628 5
      vertex 1 1 5
      vertex 2.6 2.25 5
    endloop
  endfacet
  facet normal 0 0 1
    outer loop
      vertex 2.6 2.25 5
      vertex 1 1 5
      vertex 2.6071 2.1372 5
    endloop
  endfacet
  facet normal 0 0 1
    outer loop
      vertex 2.6071 2.1372 5
      vertex 1 1 5
      vertex 2.62827 2.02618 5
    endloop
  endfacet
  facet normal 0 0 1
    outer loop
      vertex 3.44349 1.35178 5
      vertex 1 1 5
      vertex 6 1 5
    endloop
  endfacet
  facet normal 0 0 1
    outer loop
      vertex 3.22188 1.39405 5
      vertex 1 1 5
      vertex 3.33136 1.36594 5
    endloop
  endfacet
  facet normal 0 0 1
    outer loop
      vertex 3.1168 1.43566 5
      vertex 1 1 5
      vertex 3.22188 1.39405 5
    endloop
  endfacet
  facet normal 0 0 1
    outer loop
      vertex 3.01776 1.4901 5
      vertex 1 1 5
      vertex 3.1168 1.43566 5
    endloop
  endfacet
  facet normal 0 0 1
    outer loop
      vertex 2.92632 1.55654 5
      vertex 1 1 5
      vertex 3.01776 1.4901 5
    endloop
  endfacet
  facet normal 0 0 1
    outer loop
      vertex 2.84393 1.63391 5
      vertex 1 1 5
      vertex 2.92632 1.55654 5
    endloop
  endfacet
  facet normal 0 0 1
    outer loop
      vertex 2.77188 1.72099 5
      vertex 1 1 5
      vertex 2.84393 1.63391 5
    endloop
  endfacet
  facet normal 0 0 1
    outer loop
      vertex 2.71132 1.81642 5
      vertex 1 1 5
      vertex 2.77188 1.72099 5
    endloop
  endfacet
  facet normal 0 0 1
    outer loop
      vertex 2.6632 1.91869 5
      vertex 1 1 5
      vertex 2.71132 1.81642 5
    endloop
  endfacet
  facet normal 0 0 1
    outer loop
      vertex 2.62827 2.02618 5
      vertex 1 1 5
      vertex 2.6632 1.91869 5
    endloop
  endfacet
  facet normal 0 1 -0
    outer loop
      vertex 6 1 5
      vertex 1 1 6
      vertex 6 1 6
    endloop
  endfacet
  facet normal 0 1 0
    outer loop
      vertex 1 1 6
      vertex 6 1 5
      vertex 1 1 5
    endloop
  endfacet
  facet normal 0 -1 0
    outer loop
      vertex 1 6 5
      vertex 6 6 6
      vertex 1 6 6
    endloop
  endfacet
  facet normal 0 -1 -0
    outer loop
      vertex 6 6 6
      vertex 1 6 5
      vertex 6 6 5
    endloop
  endfacet
  facet normal -1 0 0
    outer loop
      vertex 0 0 0
      vertex 0 3 6
      vertex 0 3 0
    endloop
  endfacet
  facet normal -1 -0 0
    outer loop
      vertex 0 3 6
      vertex 0 0 0
      vertex 0 0 6
    endloop
  endfacet
  facet normal -1 0 0
    outer loop
      vertex 0 4 0
      vertex 0 7 6
      vertex 0 7 0
    endloop
  endfacet
  facet normal -1 -0 0
    outer loop
      vertex 0 7 6
      vertex 0 4 0
      vertex 0 4 6
    endloop
  endfacet
  facet normal -0 0 1
    outer loop
      vertex 6 6 6
      vertex 7 4 6
      vertex 7 7 6
    endloop
  endfacet
  facet normal 0 0 1
    outer loop
      vertex 6.55 4 6
      vertex 6 6 6
      vertex 6.55 3 6
    endloop
  endfacet
  facet normal 0 0 1
    outer loop
      vertex 7 4 6
      vertex 6 6 6
      vertex 6.55 4 6
    endloop
  endfacet
  facet normal 0 0 1
    outer loop
      vertex 7 7 6
      vertex 1 6 6
      vertex 6 6 6
    endloop
  endfacet
  facet normal 0 0 1
    outer loop
      vertex 1 6 6
      vertex 0.45 4 6
      vertex 1 1 6
    endloop
  endfacet
  facet normal -0 0 1
    outer loop
      vertex 0 7 6
      vertex 1 6 6
      vertex 7 7 6
    endloop
  endfacet
  facet normal 0 0 1
    outer loop
      vertex 0 4 6
      vertex 1 6 6
      vertex 0 7 6
    endloop
  endfacet
  facet normal 0 0 1
    outer loop
      vertex 1 6 6
      vertex 0 4 6
      vertex 0.45 4 6
    endloop
  endfacet
  facet normal 0 0 1
    outer loop
      vertex 6 1 6
      vertex 7 3 6
      vertex 6.55 3 6
    endloop
  endfacet
  facet normal 0 0 1
    outer loop
      vertex 6 1 6
      vertex 6.55 3 6
      vertex 6 6 6
    endloop
  endfacet
  facet normal 0 0 1
    outer loop
      vertex 7 3 6
      vertex 6 1 6
      vertex 7 0 6
    endloop
  endfacet
  facet normal -0 0 1
    outer loop
      vertex 1 1 6
      vertex 7 0 6
      vertex 6 1 6
    endloop
  endfacet
  facet normal -0 0 1
    outer loop
      vertex 0.45 3 6
      vertex 1 1 6
      vertex 0.45 4 6
    endloop
  endfacet
  facet normal -0 0 1
    outer loop
      vertex 0 3 6
      vertex 1 1 6
      vertex 0.45 3 6
    endloop
  endfacet
  facet normal 0 0 1
    outer loop
      vertex 1 1 6
      vertex 0 0 6
      vertex 7 0 6
    endloop
  endfacet
  facet normal 0 0 1
    outer loop
      vertex 0 0 6
      vertex 1 1 6
      vertex 0 3 6
    endloop
  endfacet
  facet normal 1 -0 0
    outer loop
      vertex 7 0 6
      vertex 7 3 0
      vertex 7 3 6
    endloop
  endfacet
  facet normal 1 0 0
    outer loop
      vertex 7 3 0
      vertex 7 0 6
      vertex 7 0 0
    endloop
  endfacet
  facet normal 1 -0 0
    outer loop
      vertex 7 4 6
      vertex 7 7 0
      vertex 7 7 6
    endloop
  endfacet
  facet normal 1 0 0
    outer loop
      vertex 7 7 0
      vertex 7 4 6
      vertex 7 4 0
    endloop
  endfacet
  facet normal 0 1 -0
    outer loop
      vertex 7 7 0
      vertex 0 7 6
      vertex 7 7 6
    endloop
  endfacet
  facet normal 0 1 0
    outer loop
      vertex 0 7 6
      vertex 7 7 0
      vertex 0 7 0
    endloop
  endfacet
  facet normal 0 0 -1
    outer loop
      vertex 1.98 2.3 0
      vertex 2.48 4.7 0
      vertex 2.48 2.3 0
    endloop
  endfacet
  facet normal -0 0 -1
    outer loop
      vertex 2.48 4.7 0
      vertex 1.98 2.3 0
      vertex 1.98 4.7 0
    endloop
  endfacet
  facet normal 0 0 -1
    outer loop
      vertex 4.52 2.3 0
      vertex 5.02 4.7 0
      vertex 5.02 2.3 0
    endloop
  endfacet
  facet normal -0 0 -1
    outer loop
      vertex 5.02 4.7 0
      vertex 4.52 2.3 0
      vertex 4.52 4.7 0
    endloop
  endfacet
  facet normal 0 0 -1
    outer loop
      vertex 7 0 0
      vertex 6.55 3 0
      vertex 7 3 0
    endloop
  endfacet
  facet normal 0 0 -1
    outer loop
      vertex 5.02 2.3 0
      vertex 6.55 3 0
      vertex 5.02 1.9 0
    endloop
  endfacet
  facet normal 0 0 -1
    outer loop
      vertex 7 0 0
      vertex 5.02 1.9 0
      vertex 6.55 3 0
    endloop
  endfacet
  facet normal 0 0 -1
    outer loop
      vertex 7 0 0
      vertex 4.52 1.9 0
      vertex 5.02 1.9 0
    endloop
  endfacet
  facet normal 0 0 -1
    outer loop
      vertex 2.48 2.3 0
      vertex 4.52 2.3 0
      vertex 4.52 1.9 0
    endloop
  endfacet
  facet normal 0 0 -1
    outer loop
      vertex 4.52 2.3 0
      vertex 2.48 2.3 0
      vertex 4.52 4.7 0
    endloop
  endfacet
  facet normal 0 0 -1
    outer loop
      vertex 2.48 2.3 0
      vertex 4.52 1.9 0
      vertex 2.48 1.9 0
    endloop
  endfacet
  facet normal 0 0 -1
    outer loop
      vertex 7 0 0
      vertex 2.48 1.9 0
      vertex 4.52 1.9 0
    endloop
  endfacet
  facet normal 0 0 -1
    outer loop
      vertex 0 0 0
      vertex 2.48 1.9 0
      vertex 7 0 0
    endloop
  endfacet
  facet normal 0 0 -1
    outer loop
      vertex 0.45 3 0
      vertex 1.98 2.3 0
      vertex 1.98 1.9 0
    endloop
  endfacet
  facet normal 0 0 -1
    outer loop
      vertex 1.98 2.3 0
      vertex 0.45 3 0
      vertex 1.98 4.7 0
    endloop
  endfacet
  facet normal 0 0 -1
    outer loop
      vertex 0.45 4 0
      vertex 1.98 4.7 0
      vertex 0.45 3 0
    endloop
  endfacet
  facet normal -0 0 -1
    outer loop
      vertex 2.48 1.9 0
      vertex 0 0 0
      vertex 1.98 1.9 0
    endloop
  endfacet
  facet normal 0 0 -1
    outer loop
      vertex 0 0 0
      vertex 0.45 3 0
      vertex 1.98 1.9 0
    endloop
  endfacet
  facet normal -0 0 -1
    outer loop
      vertex 0.45 3 0
      vertex 0 0 0
      vertex 0 3 0
    endloop
  endfacet
  facet normal 0 0 -1
    outer loop
      vertex 6.55 4 0
      vertex 7 7 0
      vertex 7 4 0
    endloop
  endfacet
  facet normal -0 0 -1
    outer loop
      vertex 6.55 3 0
      vertex 5.02 2.3 0
      vertex 6.55 4 0
    endloop
  endfacet
  facet normal 0 0 -1
    outer loop
      vertex 5.02 4.7 0
      vertex 6.55 4 0
      vertex 5.02 2.3 0
    endloop
  endfacet
  facet normal 0 0 -1
    outer loop
      vertex 5.02 5.1 0
      vertex 6.55 4 0
      vertex 5.02 4.7 0
    endloop
  endfacet
  facet normal 0 0 -1
    outer loop
      vertex 6.55 4 0
      vertex 5.02 5.1 0
      vertex 7 7 0
    endloop
  endfacet
  facet normal 0 0 -1
    outer loop
      vertex 4.52 5.1 0
      vertex 7 7 0
      vertex 5.02 5.1 0
    endloop
  endfacet
  facet normal 0 0 -1
    outer loop
      vertex 2.48 4.7 0
      vertex 4.52 4.7 0
      vertex 2.48 2.3 0
    endloop
  endfacet
  facet normal 0 0 -1
    outer loop
      vertex 4.52 4.7 0
      vertex 2.48 4.7 0
      vertex 4.52 5.1 0
    endloop
  endfacet
  facet normal 0 0 -1
    outer loop
      vertex 2.48 5.1 0
      vertex 4.52 5.1 0
      vertex 2.48 4.7 0
    endloop
  endfacet
  facet normal 0 0 -1
    outer loop
      vertex 4.52 5.1 0
      vertex 2.48 5.1 0
      vertex 7 7 0
    endloop
  endfacet
  facet normal 0 0 -1
    outer loop
      vertex 0 7 0
      vertex 2.48 5.1 0
      vertex 1.98 5.1 0
    endloop
  endfacet
  facet normal -0 0 -1
    outer loop
      vertex 1.98 4.7 0
      vertex 0.45 4 0
      vertex 1.98 5.1 0
    endloop
  endfacet
  facet normal 0 0 -1
    outer loop
      vertex 0 7 0
      vertex 0.45 4 0
      vertex 0 4 0
    endloop
  endfacet
  facet normal 0 0 -1
    outer loop
      vertex 2.48 5.1 0
      vertex 0 7 0
      vertex 7 7 0
    endloop
  endfacet
  facet normal 0 0 -1
    outer loop
      vertex 0.45 4 0
      vertex 0 7 0
      vertex 1.98 5.1 0
    endloop
  endfacet
  facet normal 0 -1 0
    outer loop
      vertex 0 0 0
      vertex 7 0 6
      vertex 0 0 6
    endloop
  endfacet
  facet normal 0 -1 -0
    outer loop
      vertex 7 0 6
      vertex 0 0 0
      vertex 7 0 0
    endloop
  endfacet
  facet normal -1 0 0
    outer loop
      vertex 1.98 1.9 -6
      vertex 1.98 2.3 0
      vertex 1.98 2.3 -6
    endloop
  endfacet
  facet normal -1 -0 0
    outer loop
      vertex 1.98 2.3 0
      vertex 1.98 1.9 -6
      vertex 1.98 1.9 0
    endloop
  endfacet
  facet normal 1 -0 0
    outer loop
      vertex 2.48 1.9 0
      vertex 2.48 2.3 -6
      vertex 2.48 2.3 0
    endloop
  endfacet
  facet normal 1 0 0
    outer loop
      vertex 2.48 2.3 -6
      vertex 2.48 1.9 0
      vertex 2.48 1.9 -6
    endloop
  endfacet
  facet normal 0 1 -0
    outer loop
      vertex 2.48 2.3 -6
      vertex 1.98 2.3 0
      vertex 2.48 2.3 0
    endloop
  endfacet
  facet normal 0 1 0
    outer loop
      vertex 1.98 2.3 0
      vertex 2.48 2.3 -6
      vertex 1.98 2.3 -6
    endloop
  endfacet
  facet normal 0 0 -1
    outer loop
      vertex 1.98 1.9 -6
      vertex 2.48 2.3 -6
      vertex 2.48 1.9 -6
    endloop
  endfacet
  facet normal -0 0 -1
    outer loop
      vertex 2.48 2.3 -6
      vertex 1.98 1.9 -6
      vertex 1.98 2.3 -6
    endloop
  endfacet
  facet normal 0 -1 0
    outer loop
      vertex 1.98 1.9 -6
      vertex 2.48 1.9 0
      vertex 1.98 1.9 0
    endloop
  endfacet
  facet normal 0 -1 -0
    outer loop
      vertex 2.48 1.9 0
      vertex 1.98 1.9 -6
      vertex 2.48 1.9 -6
    endloop
  endfacet
  facet normal -1 0 0
    outer loop
      vertex 1.98 4.7 -6
      vertex 1.98 5.1 0
      vertex 1.98 5.1 -6
    endloop
  endfacet
  facet normal -1 -0 0
    outer loop
      vertex 1.98 5.1 0
      vertex 1.98 4.7 -6
      vertex 1.98 4.7 0
    endloop
  endfacet
  facet normal 1 -0 0
    outer loop
      vertex 2.48 4.7 0
      vertex 2.48 5.1 -6
      vertex 2.48 5.1 0
    endloop
  endfacet
  facet normal 1 0 0
    outer loop
      vertex 2.48 5.1 -6
      vertex 2.48 4.7 0
      vertex 2.48 4.7 -6
    endloop
  endfacet
  facet normal 0 1 -0
    outer loop
      vertex 2.48 5.1 -6
      vertex 1.98 5.1 0
      vertex 2.48 5.1 0
    endloop
  endfacet
  facet normal 0 1 0
    outer loop
      vertex 1.98 5.1 0
      vertex 2.48 5.1 -6
      vertex 1.98 5.1 -6
    endloop
  endfacet
  facet normal 0 0 -1
    outer loop
      vertex 1.98 4.7 -6
      vertex 2.48 5.1 -6
      vertex 2.48 4.7 -6
    endloop
  endfacet
  facet normal -0 0 -1
    outer loop
      vertex 2.48 5.1 -6
      vertex 1.98 4.7 -6
      vertex 1.98 5.1 -6
    endloop
  endfacet
  facet normal 0 -1 0
    outer loop
      vertex 1.98 4.7 -6
      vertex 2.48 4.7 0
      vertex 1.98 4.7 0
    endloop
  endfacet
  facet normal 0 -1 -0
    outer loop
      vertex 2.48 4.7 0
      vertex 1.98 4.7 -6
      vertex 2.48 4.7 -6
    endloop
  endfacet
  facet normal -1 0 0
    outer loop
      vertex 4.52 4.7 -6
      vertex 4.52 5.1 0
      vertex 4.52 5.1 -6
    endloop
  endfacet
  facet normal -1 -0 0
    outer loop
      vertex 4.52 5.1 0
      vertex 4.52 4.7 -6
      vertex 4.52 4.7 0
    endloop
  endfacet
  facet normal 1 -0 0
    outer loop
      vertex 5.02 4.7 0
      vertex 5.02 5.1 -6
      vertex 5.02 5.1 0
    endloop
  endfacet
  facet normal 1 0 0
    outer loop
      vertex 5.02 5.1 -6
      vertex 5.02 4.7 0
      vertex 5.02 4.7 -6
    endloop
  endfacet
  facet normal 0 1 -0
    outer loop
      vertex 5.02 5.1 -6
      vertex 4.52 5.1 0
      vertex 5.02 5.1 0
    endloop
  endfacet
  facet normal 0 1 0
    outer loop
      vertex 4.52 5.1 0
      vertex 5.02 5.1 -6
      vertex 4.52 5.1 -6
    endloop
  endfacet
  facet normal 0 0 -1
    outer loop
      vertex 4.52 4.7 -6
      vertex 5.02 5.1 -6
      vertex 5.02 4.7 -6
    endloop
  endfacet
  facet normal -0 0 -1
    outer loop
      vertex 5.02 5.1 -6
      vertex 4.52 4.7 -6
      vertex 4.52 5.1 -6
    endloop
  endfacet
  facet normal 0 -1 0
    outer loop
      vertex 4.52 4.7 -6
      vertex 5.02 4.7 0
      vertex 4.52 4.7 0
    endloop
  endfacet
  facet normal 0 -1 -0
    outer loop
      vertex 5.02 4.7 0
      vertex 4.52 4.7 -6
      vertex 5.02 4.7 -6
    endloop
  endfacet
  facet normal -1 0 0
    outer loop
      vertex 4.52 1.9 -6
      vertex 4.52 2.3 0
      vertex 4.52 2.3 -6
    endloop
  endfacet
  facet normal -1 -0 0
    outer loop
      vertex 4.52 2.3 0
      vertex 4.52 1.9 -6
      vertex 4.52 1.9 0
    endloop
  endfacet
  facet normal 1 -0 0
    outer loop
      vertex 5.02 1.9 0
      vertex 5.02 2.3 -6
      vertex 5.02 2.3 0
    endloop
  endfacet
  facet normal 1 0 0
    outer loop
      vertex 5.02 2.3 -6
      vertex 5.02 1.9 0
      vertex 5.02 1.9 -6
    endloop
  endfacet
  facet normal 0 0 -1
    outer loop
      vertex 4.52 1.9 -6
      vertex 5.02 2.3 -6
      vertex 5.02 1.9 -6
    endloop
  endfacet
  facet normal -0 0 -1
    outer loop
      vertex 5.02 2.3 -6
      vertex 4.52 1.9 -6
      vertex 4.52 2.3 -6
    endloop
  endfacet
  facet normal 0 -1 0
    outer loop
      vertex 4.52 1.9 -6
      vertex 5.02 1.9 0
      vertex 4.52 1.9 0
    endloop
  endfacet
  facet normal 0 -1 -0
    outer loop
      vertex 5.02 1.9 0
      vertex 4.52 1.9 -6
      vertex 5.02 1.9 -6
    endloop
  endfacet
  facet normal 0 1 -0
    outer loop
      vertex 5.02 2.3 -6
      vertex 4.52 2.3 0
      vertex 5.02 2.3 0
    endloop
  endfacet
  facet normal 0 1 0
    outer loop
      vertex 4.52 2.3 0
      vertex 5.02 2.3 -6
      vertex 4.52 2.3 -6
    endloop
  endfacet
  facet normal 0.951071 0.308972 0
    outer loop
      vertex 4.37172 2.47382 5.1
      vertex 4.3368 2.58131 5
      vertex 4.3368 2.58131 5.1
    endloop
  endfacet
  facet normal 0.951071 0.308972 0
    outer loop
      vertex 4.3368 2.58131 5
      vertex 4.37172 2.47382 5.1
      vertex 4.37172 2.47382 5
    endloop
  endfacet
  facet normal 0.998025 0.0628189 0
    outer loop
      vertex 4.4 2.25 5.1
      vertex 4.3929 2.3628 5
      vertex 4.3929 2.3628 5.1
    endloop
  endfacet
  facet normal 0.998025 0.0628189 0
    outer loop
      vertex 4.3929 2.3628 5
      vertex 4.4 2.25 5.1
      vertex 4.4 2.25 5
    endloop
  endfacet
  facet normal 0 1 -0
    outer loop
      vertex 3.55651 3.14822 5
      vertex 3.44349 3.14822 5.1
      vertex 3.55651 3.14822 5.1
    endloop
  endfacet
  facet normal 0 1 0
    outer loop
      vertex 3.44349 3.14822 5.1
      vertex 3.55651 3.14822 5
      vertex 3.44349 3.14822 5
    endloop
  endfacet
  facet normal 0.68455 0.728966 -0
    outer loop
      vertex 4.15607 2.86609 5
      vertex 4.07368 2.94346 5.1
      vertex 4.15607 2.86609 5.1
    endloop
  endfacet
  facet normal 0.68455 0.728966 0
    outer loop
      vertex 4.07368 2.94346 5.1
      vertex 4.15607 2.86609 5
      vertex 4.07368 2.94346 5
    endloop
  endfacet
  facet normal -0.68455 0.728966 0
    outer loop
      vertex 2.92632 2.94346 5
      vertex 2.84393 2.86609 5.1
      vertex 2.92632 2.94346 5.1
    endloop
  endfacet
  facet normal -0.68455 0.728966 0
    outer loop
      vertex 2.84393 2.86609 5.1
      vertex 2.92632 2.94346 5
      vertex 2.84393 2.86609 5
    endloop
  endfacet
  facet normal -0.36817 0.929759 0
    outer loop
      vertex 3.22188 3.10595 5
      vertex 3.1168 3.06434 5.1
      vertex 3.22188 3.10595 5.1
    endloop
  endfacet
  facet normal -0.36817 0.929759 0
    outer loop
      vertex 3.1168 3.06434 5.1
      vertex 3.22188 3.10595 5
      vertex 3.1168 3.06434 5
    endloop
  endfacet
  facet normal -0.68455 -0.728966 0
    outer loop
      vertex 2.84393 1.63391 5
      vertex 2.92632 1.55654 5.1
      vertex 2.84393 1.63391 5.1
    endloop
  endfacet
  facet normal -0.68455 -0.728966 -0
    outer loop
      vertex 2.92632 1.55654 5.1
      vertex 2.84393 1.63391 5
      vertex 2.92632 1.55654 5
    endloop
  endfacet
  facet normal 0.904843 0.425746 0
    outer loop
      vertex 4.3368 2.58131 5.1
      vertex 4.28868 2.68358 5
      vertex 4.28868 2.68358 5.1
    endloop
  endfacet
  facet normal 0.904843 0.425746 0
    outer loop
      vertex 4.28868 2.68358 5
      vertex 4.3368 2.58131 5.1
      vertex 4.3368 2.58131 5
    endloop
  endfacet
  facet normal 0.36817 0.929759 -0
    outer loop
      vertex 3.8832 3.06434 5
      vertex 3.77812 3.10595 5.1
      vertex 3.8832 3.06434 5.1
    endloop
  endfacet
  facet normal 0.36817 0.929759 0
    outer loop
      vertex 3.77812 3.10595 5.1
      vertex 3.8832 3.06434 5
      vertex 3.77812 3.10595 5
    endloop
  endfacet
  facet normal 0.125287 0.992121 -0
    outer loop
      vertex 3.66864 3.13406 5
      vertex 3.55651 3.14822 5.1
      vertex 3.66864 3.13406 5.1
    endloop
  endfacet
  facet normal 0.125287 0.992121 0
    outer loop
      vertex 3.55651 3.14822 5.1
      vertex 3.66864 3.13406 5
      vertex 3.55651 3.14822 5
    endloop
  endfacet
  facet normal 0.587756 0.809038 -0
    outer loop
      vertex 4.07368 2.94346 5
      vertex 3.98224 3.00989 5.1
      vertex 4.07368 2.94346 5.1
    endloop
  endfacet
  facet normal 0.587756 0.809038 0
    outer loop
      vertex 3.98224 3.00989 5.1
      vertex 4.07368 2.94346 5
      vertex 3.98224 3.00989 5
    endloop
  endfacet
  facet normal -0.844335 0.535816 0
    outer loop
      vertex 2.71132 2.68358 5
      vertex 2.77188 2.77901 5.1
      vertex 2.77188 2.77901 5
    endloop
  endfacet
  facet normal -0.844335 0.535816 0
    outer loop
      vertex 2.77188 2.77901 5.1
      vertex 2.71132 2.68358 5
      vertex 2.71132 2.68358 5.1
    endloop
  endfacet
  facet normal -0.770465 0.637483 0
    outer loop
      vertex 2.77188 2.77901 5
      vertex 2.84393 2.86609 5.1
      vertex 2.84393 2.86609 5
    endloop
  endfacet
  facet normal -0.770465 0.637483 0
    outer loop
      vertex 2.84393 2.86609 5.1
      vertex 2.77188 2.77901 5
      vertex 2.77188 2.77901 5.1
    endloop
  endfacet
  facet normal -0.998025 -0.0628189 0
    outer loop
      vertex 2.6071 2.1372 5
      vertex 2.6 2.25 5.1
      vertex 2.6 2.25 5
    endloop
  endfacet
  facet normal -0.998025 -0.0628189 0
    outer loop
      vertex 2.6 2.25 5.1
      vertex 2.6071 2.1372 5
      vertex 2.6071 2.1372 5.1
    endloop
  endfacet
  facet normal -0.481769 0.876298 0
    outer loop
      vertex 3.1168 3.06434 5
      vertex 3.01776 3.00989 5.1
      vertex 3.1168 3.06434 5.1
    endloop
  endfacet
  facet normal -0.481769 0.876298 0
    outer loop
      vertex 3.01776 3.00989 5.1
      vertex 3.1168 3.06434 5
      vertex 3.01776 3.00989 5
    endloop
  endfacet
  facet normal -0.125287 0.992121 0
    outer loop
      vertex 3.44349 3.14822 5
      vertex 3.33136 3.13406 5.1
      vertex 3.44349 3.14822 5.1
    endloop
  endfacet
  facet normal -0.125287 0.992121 0
    outer loop
      vertex 3.33136 3.13406 5.1
      vertex 3.44349 3.14822 5
      vertex 3.33136 3.13406 5
    endloop
  endfacet
  facet normal 0.68455 -0.728966 0
    outer loop
      vertex 4.07368 1.55654 5
      vertex 4.15607 1.63391 5.1
      vertex 4.07368 1.55654 5.1
    endloop
  endfacet
  facet normal 0.68455 -0.728966 0
    outer loop
      vertex 4.15607 1.63391 5.1
      vertex 4.07368 1.55654 5
      vertex 4.15607 1.63391 5
    endloop
  endfacet
  facet normal 0.481701 -0.876335 0
    outer loop
      vertex 3.8832 1.43566 5
      vertex 3.98224 1.4901 5.1
      vertex 3.8832 1.43566 5.1
    endloop
  endfacet
  facet normal 0.481701 -0.876335 0
    outer loop
      vertex 3.98224 1.4901 5.1
      vertex 3.8832 1.43566 5
      vertex 3.98224 1.4901 5
    endloop
  endfacet
  facet normal -0.587814 -0.808996 0
    outer loop
      vertex 2.92632 1.55654 5
      vertex 3.01776 1.4901 5.1
      vertex 2.92632 1.55654 5.1
    endloop
  endfacet
  facet normal -0.587814 -0.808996 -0
    outer loop
      vertex 3.01776 1.4901 5.1
      vertex 2.92632 1.55654 5
      vertex 3.01776 1.4901 5
    endloop
  endfacet
  facet normal -0.248692 -0.968582 0
    outer loop
      vertex 3.22188 1.39405 5
      vertex 3.33136 1.36594 5.1
      vertex 3.22188 1.39405 5.1
    endloop
  endfacet
  facet normal -0.248692 -0.968582 -0
    outer loop
      vertex 3.33136 1.36594 5.1
      vertex 3.22188 1.39405 5
      vertex 3.33136 1.36594 5
    endloop
  endfacet
  facet normal -0.951045 -0.309052 0
    outer loop
      vertex 2.6632 1.91869 5
      vertex 2.62827 2.02618 5.1
      vertex 2.62827 2.02618 5
    endloop
  endfacet
  facet normal -0.951045 -0.309052 0
    outer loop
      vertex 2.62827 2.02618 5.1
      vertex 2.6632 1.91869 5
      vertex 2.6632 1.91869 5.1
    endloop
  endfacet
  facet normal 0.844335 0.535816 0
    outer loop
      vertex 4.28868 2.68358 5.1
      vertex 4.22812 2.77901 5
      vertex 4.22812 2.77901 5.1
    endloop
  endfacet
  facet normal 0.844335 0.535816 0
    outer loop
      vertex 4.22812 2.77901 5
      vertex 4.28868 2.68358 5.1
      vertex 4.28868 2.68358 5
    endloop
  endfacet
  facet normal 0.770465 0.637483 0
    outer loop
      vertex 4.22812 2.77901 5.1
      vertex 4.15607 2.86609 5
      vertex 4.15607 2.86609 5.1
    endloop
  endfacet
  facet normal 0.770465 0.637483 0
    outer loop
      vertex 4.15607 2.86609 5
      vertex 4.22812 2.77901 5.1
      vertex 4.22812 2.77901 5
    endloop
  endfacet
  facet normal -0.904843 0.425746 0
    outer loop
      vertex 2.6632 2.58131 5
      vertex 2.71132 2.68358 5.1
      vertex 2.71132 2.68358 5
    endloop
  endfacet
  facet normal -0.904843 0.425746 0
    outer loop
      vertex 2.71132 2.68358 5.1
      vertex 2.6632 2.58131 5
      vertex 2.6632 2.58131 5.1
    endloop
  endfacet
  facet normal -0.951045 0.309052 0
    outer loop
      vertex 2.62827 2.47382 5
      vertex 2.6632 2.58131 5.1
      vertex 2.6632 2.58131 5
    endloop
  endfacet
  facet normal -0.951045 0.309052 0
    outer loop
      vertex 2.6632 2.58131 5.1
      vertex 2.62827 2.47382 5
      vertex 2.62827 2.47382 5.1
    endloop
  endfacet
  facet normal -0.982301 0.187311 0
    outer loop
      vertex 2.6071 2.3628 5
      vertex 2.62827 2.47382 5.1
      vertex 2.62827 2.47382 5
    endloop
  endfacet
  facet normal -0.982301 0.187311 0
    outer loop
      vertex 2.62827 2.47382 5.1
      vertex 2.6071 2.3628 5
      vertex 2.6071 2.3628 5.1
    endloop
  endfacet
  facet normal -0.248692 0.968582 0
    outer loop
      vertex 3.33136 3.13406 5
      vertex 3.22188 3.10595 5.1
      vertex 3.33136 3.13406 5.1
    endloop
  endfacet
  facet normal -0.248692 0.968582 0
    outer loop
      vertex 3.22188 3.10595 5.1
      vertex 3.33136 3.13406 5
      vertex 3.22188 3.10595 5
    endloop
  endfacet
  facet normal 0.998025 -0.0628189 0
    outer loop
      vertex 4.3929 2.1372 5.1
      vertex 4.4 2.25 5
      vertex 4.4 2.25 5.1
    endloop
  endfacet
  facet normal 0.998025 -0.0628189 0
    outer loop
      vertex 4.4 2.25 5
      vertex 4.3929 2.1372 5.1
      vertex 4.3929 2.1372 5
    endloop
  endfacet
  facet normal 0.36817 -0.929759 0
    outer loop
      vertex 3.77812 1.39405 5
      vertex 3.8832 1.43566 5.1
      vertex 3.77812 1.39405 5.1
    endloop
  endfacet
  facet normal 0.36817 -0.929759 0
    outer loop
      vertex 3.8832 1.43566 5.1
      vertex 3.77812 1.39405 5
      vertex 3.8832 1.43566 5
    endloop
  endfacet
  facet normal 0.125287 -0.992121 0
    outer loop
      vertex 3.55651 1.35178 5
      vertex 3.66864 1.36594 5.1
      vertex 3.55651 1.35178 5.1
    endloop
  endfacet
  facet normal 0.125287 -0.992121 0
    outer loop
      vertex 3.66864 1.36594 5.1
      vertex 3.55651 1.35178 5
      vertex 3.66864 1.36594 5
    endloop
  endfacet
  facet normal 0.248692 -0.968582 0
    outer loop
      vertex 3.66864 1.36594 5
      vertex 3.77812 1.39405 5.1
      vertex 3.66864 1.36594 5.1
    endloop
  endfacet
  facet normal 0.248692 -0.968582 0
    outer loop
      vertex 3.77812 1.39405 5.1
      vertex 3.66864 1.36594 5
      vertex 3.77812 1.39405 5
    endloop
  endfacet
  facet normal 0.587814 -0.808996 0
    outer loop
      vertex 3.98224 1.4901 5
      vertex 4.07368 1.55654 5.1
      vertex 3.98224 1.4901 5.1
    endloop
  endfacet
  facet normal 0.587814 -0.808996 0
    outer loop
      vertex 4.07368 1.55654 5.1
      vertex 3.98224 1.4901 5
      vertex 4.07368 1.55654 5
    endloop
  endfacet
  facet normal 0.770465 -0.637483 0
    outer loop
      vertex 4.15607 1.63391 5.1
      vertex 4.22812 1.72099 5
      vertex 4.22812 1.72099 5.1
    endloop
  endfacet
  facet normal 0.770465 -0.637483 0
    outer loop
      vertex 4.22812 1.72099 5
      vertex 4.15607 1.63391 5.1
      vertex 4.15607 1.63391 5
    endloop
  endfacet
  facet normal -0.481701 -0.876335 0
    outer loop
      vertex 3.01776 1.4901 5
      vertex 3.1168 1.43566 5.1
      vertex 3.01776 1.4901 5.1
    endloop
  endfacet
  facet normal -0.481701 -0.876335 -0
    outer loop
      vertex 3.1168 1.43566 5.1
      vertex 3.01776 1.4901 5
      vertex 3.1168 1.43566 5
    endloop
  endfacet
  facet normal 0 -1 0
    outer loop
      vertex 3.44349 1.35178 5
      vertex 3.55651 1.35178 5.1
      vertex 3.44349 1.35178 5.1
    endloop
  endfacet
  facet normal 0 -1 -0
    outer loop
      vertex 3.55651 1.35178 5.1
      vertex 3.44349 1.35178 5
      vertex 3.55651 1.35178 5
    endloop
  endfacet
  facet normal -0.844335 -0.535816 0
    outer loop
      vertex 2.77188 1.72099 5
      vertex 2.71132 1.81642 5.1
      vertex 2.71132 1.81642 5
    endloop
  endfacet
  facet normal -0.844335 -0.535816 0
    outer loop
      vertex 2.71132 1.81642 5.1
      vertex 2.77188 1.72099 5
      vertex 2.77188 1.72099 5.1
    endloop
  endfacet
  facet normal -0.904843 -0.425746 0
    outer loop
      vertex 2.71132 1.81642 5
      vertex 2.6632 1.91869 5.1
      vertex 2.6632 1.91869 5
    endloop
  endfacet
  facet normal -0.904843 -0.425746 0
    outer loop
      vertex 2.6632 1.91869 5.1
      vertex 2.71132 1.81642 5
      vertex 2.71132 1.81642 5.1
    endloop
  endfacet
  facet normal -0.982301 -0.187311 0
    outer loop
      vertex 2.62827 2.02618 5
      vertex 2.6071 2.1372 5.1
      vertex 2.6071 2.1372 5
    endloop
  endfacet
  facet normal -0.982301 -0.187311 0
    outer loop
      vertex 2.6071 2.1372 5.1
      vertex 2.62827 2.02618 5
      vertex 2.62827 2.02618 5.1
    endloop
  endfacet
  facet normal 0.982284 0.187397 0
    outer loop
      vertex 4.3929 2.3628 5.1
      vertex 4.37172 2.47382 5
      vertex 4.37172 2.47382 5.1
    endloop
  endfacet
  facet normal 0.982284 0.187397 0
    outer loop
      vertex 4.37172 2.47382 5
      vertex 4.3929 2.3628 5.1
      vertex 4.3929 2.3628 5
    endloop
  endfacet
  facet normal 0.248692 0.968582 -0
    outer loop
      vertex 3.77812 3.10595 5
      vertex 3.66864 3.13406 5.1
      vertex 3.77812 3.10595 5.1
    endloop
  endfacet
  facet normal 0.248692 0.968582 0
    outer loop
      vertex 3.66864 3.13406 5.1
      vertex 3.77812 3.10595 5
      vertex 3.66864 3.13406 5
    endloop
  endfacet
  facet normal 0.481769 0.876298 -0
    outer loop
      vertex 3.98224 3.00989 5
      vertex 3.8832 3.06434 5.1
      vertex 3.98224 3.00989 5.1
    endloop
  endfacet
  facet normal 0.481769 0.876298 0
    outer loop
      vertex 3.8832 3.06434 5.1
      vertex 3.98224 3.00989 5
      vertex 3.8832 3.06434 5
    endloop
  endfacet
  facet normal 0 0 1
    outer loop
      vertex 4.3929 2.3628 5.1
      vertex 4.3929 2.1372 5.1
      vertex 4.4 2.25 5.1
    endloop
  endfacet
  facet normal 0 0 1
    outer loop
      vertex 4.37172 2.47382 5.1
      vertex 4.3929 2.1372 5.1
      vertex 4.3929 2.3628 5.1
    endloop
  endfacet
  facet normal 0 0 1
    outer loop
      vertex 4.37172 2.47382 5.1
      vertex 4.37172 2.02618 5.1
      vertex 4.3929 2.1372 5.1
    endloop
  endfacet
  facet normal 0 0 1
    outer loop
      vertex 4.3368 2.58131 5.1
      vertex 4.37172 2.02618 5.1
      vertex 4.37172 2.47382 5.1
    endloop
  endfacet
  facet normal 0 0 1
    outer loop
      vertex 4.3368 2.58131 5.1
      vertex 4.3368 1.91869 5.1
      vertex 4.37172 2.02618 5.1
    endloop
  endfacet
  facet normal 0 0 1
    outer loop
      vertex 4.28868 2.68358 5.1
      vertex 4.3368 1.91869 5.1
      vertex 4.3368 2.58131 5.1
    endloop
  endfacet
  facet normal 0 0 1
    outer loop
      vertex 4.28868 2.68358 5.1
      vertex 4.28868 1.81642 5.1
      vertex 4.3368 1.91869 5.1
    endloop
  endfacet
  facet normal 0 0 1
    outer loop
      vertex 4.22812 2.77901 5.1
      vertex 4.28868 1.81642 5.1
      vertex 4.28868 2.68358 5.1
    endloop
  endfacet
  facet normal 0 0 1
    outer loop
      vertex 4.22812 2.77901 5.1
      vertex 4.22812 1.72099 5.1
      vertex 4.28868 1.81642 5.1
    endloop
  endfacet
  facet normal 0 0 1
    outer loop
      vertex 4.15607 2.86609 5.1
      vertex 4.22812 1.72099 5.1
      vertex 4.22812 2.77901 5.1
    endloop
  endfacet
  facet normal 0 0 1
    outer loop
      vertex 4.15607 2.86609 5.1
      vertex 4.15607 1.63391 5.1
      vertex 4.22812 1.72099 5.1
    endloop
  endfacet
  facet normal 0 0 1
    outer loop
      vertex 4.07368 2.94346 5.1
      vertex 4.15607 1.63391 5.1
      vertex 4.15607 2.86609 5.1
    endloop
  endfacet
  facet normal 0 0 1
    outer loop
      vertex 4.07368 2.94346 5.1
      vertex 4.07368 1.55654 5.1
      vertex 4.15607 1.63391 5.1
    endloop
  endfacet
  facet normal 0 0 1
    outer loop
      vertex 3.98224 3.00989 5.1
      vertex 4.07368 1.55654 5.1
      vertex 4.07368 2.94346 5.1
    endloop
  endfacet
  facet normal 0 0 1
    outer loop
      vertex 3.98224 3.00989 5.1
      vertex 3.98224 1.4901 5.1
      vertex 4.07368 1.55654 5.1
    endloop
  endfacet
  facet normal 0 0 1
    outer loop
      vertex 3.8832 3.06434 5.1
      vertex 3.98224 1.4901 5.1
      vertex 3.98224 3.00989 5.1
    endloop
  endfacet
  facet normal 0 0 1
    outer loop
      vertex 3.8832 3.06434 5.1
      vertex 3.8832 1.43566 5.1
      vertex 3.98224 1.4901 5.1
    endloop
  endfacet
  facet normal 0 0 1
    outer loop
      vertex 3.77812 3.10595 5.1
      vertex 3.8832 1.43566 5.1
      vertex 3.8832 3.06434 5.1
    endloop
  endfacet
  facet normal 0 0 1
    outer loop
      vertex 3.77812 3.10595 5.1
      vertex 3.77812 1.39405 5.1
      vertex 3.8832 1.43566 5.1
    endloop
  endfacet
  facet normal 0 0 1
    outer loop
      vertex 3.66864 3.13406 5.1
      vertex 3.77812 1.39405 5.1
      vertex 3.77812 3.10595 5.1
    endloop
  endfacet
  facet normal 0 0 1
    outer loop
      vertex 3.66864 3.13406 5.1
      vertex 3.66864 1.36594 5.1
      vertex 3.77812 1.39405 5.1
    endloop
  endfacet
  facet normal 0 0 1
    outer loop
      vertex 3.55651 3.14822 5.1
      vertex 3.66864 1.36594 5.1
      vertex 3.66864 3.13406 5.1
    endloop
  endfacet
  facet normal 0 0 1
    outer loop
      vertex 3.55651 3.14822 5.1
      vertex 3.55651 1.35178 5.1
      vertex 3.66864 1.36594 5.1
    endloop
  endfacet
  facet normal -0 0 1
    outer loop
      vertex 3.44349 3.14822 5.1
      vertex 3.55651 1.35178 5.1
      vertex 3.55651 3.14822 5.1
    endloop
  endfacet
  facet normal 0 0 1
    outer loop
      vertex 3.44349 3.14822 5.1
      vertex 3.44349 1.35178 5.1
      vertex 3.55651 1.35178 5.1
    endloop
  endfacet
  facet normal -0 0 1
    outer loop
      vertex 3.33136 3.13406 5.1
      vertex 3.44349 1.35178 5.1
      vertex 3.44349 3.14822 5.1
    endloop
  endfacet
  facet normal 0 0 1
    outer loop
      vertex 3.33136 3.13406 5.1
      vertex 3.33136 1.36594 5.1
      vertex 3.44349 1.35178 5.1
    endloop
  endfacet
  facet normal -0 0 1
    outer loop
      vertex 3.22188 3.10595 5.1
      vertex 3.33136 1.36594 5.1
      vertex 3.33136 3.13406 5.1
    endloop
  endfacet
  facet normal 0 0 1
    outer loop
      vertex 3.22188 3.10595 5.1
      vertex 3.22188 1.39405 5.1
      vertex 3.33136 1.36594 5.1
    endloop
  endfacet
  facet normal -0 0 1
    outer loop
      vertex 3.1168 3.06434 5.1
      vertex 3.22188 1.39405 5.1
      vertex 3.22188 3.10595 5.1
    endloop
  endfacet
  facet normal 0 0 1
    outer loop
      vertex 3.1168 3.06434 5.1
      vertex 3.1168 1.43566 5.1
      vertex 3.22188 1.39405 5.1
    endloop
  endfacet
  facet normal -0 0 1
    outer loop
      vertex 3.01776 3.00989 5.1
      vertex 3.1168 1.43566 5.1
      vertex 3.1168 3.06434 5.1
    endloop
  endfacet
  facet normal 0 0 1
    outer loop
      vertex 3.01776 3.00989 5.1
      vertex 3.01776 1.4901 5.1
      vertex 3.1168 1.43566 5.1
    endloop
  endfacet
  facet normal -0 0 1
    outer loop
      vertex 2.92632 2.94346 5.1
      vertex 3.01776 1.4901 5.1
      vertex 3.01776 3.00989 5.1
    endloop
  endfacet
  facet normal 0 0 1
    outer loop
      vertex 2.92632 2.94346 5.1
      vertex 2.92632 1.55654 5.1
      vertex 3.01776 1.4901 5.1
    endloop
  endfacet
  facet normal -0 0 1
    outer loop
      vertex 2.84393 2.86609 5.1
      vertex 2.92632 1.55654 5.1
      vertex 2.92632 2.94346 5.1
    endloop
  endfacet
  facet normal 0 0 1
    outer loop
      vertex 2.84393 2.86609 5.1
      vertex 2.84393 1.63391 5.1
      vertex 2.92632 1.55654 5.1
    endloop
  endfacet
  facet normal -0 0 1
    outer loop
      vertex 2.77188 2.77901 5.1
      vertex 2.84393 1.63391 5.1
      vertex 2.84393 2.86609 5.1
    endloop
  endfacet
  facet normal 0 0 1
    outer loop
      vertex 2.77188 2.77901 5.1
      vertex 2.77188 1.72099 5.1
      vertex 2.84393 1.63391 5.1
    endloop
  endfacet
  facet normal -0 0 1
    outer loop
      vertex 2.71132 2.68358 5.1
      vertex 2.77188 1.72099 5.1
      vertex 2.77188 2.77901 5.1
    endloop
  endfacet
  facet normal 0 0 1
    outer loop
      vertex 2.71132 2.68358 5.1
      vertex 2.71132 1.81642 5.1
      vertex 2.77188 1.72099 5.1
    endloop
  endfacet
  facet normal -0 0 1
    outer loop
      vertex 2.6632 2.58131 5.1
      vertex 2.71132 1.81642 5.1
      vertex 2.71132 2.68358 5.1
    endloop
  endfacet
  facet normal 0 0 1
    outer loop
      vertex 2.6632 2.58131 5.1
      vertex 2.6632 1.91869 5.1
      vertex 2.71132 1.81642 5.1
    endloop
  endfacet
  facet normal -0 0 1
    outer loop
      vertex 2.62827 2.47382 5.1
      vertex 2.6632 1.91869 5.1
      vertex 2.6632 2.58131 5.1
    endloop
  endfacet
  facet normal 0 0 1
    outer loop
      vertex 2.62827 2.47382 5.1
      vertex 2.62827 2.02618 5.1
      vertex 2.6632 1.91869 5.1
    endloop
  endfacet
  facet normal -0 0 1
    outer loop
      vertex 2.6071 2.3628 5.1
      vertex 2.62827 2.02618 5.1
      vertex 2.62827 2.47382 5.1
    endloop
  endfacet
  facet normal 0 0 1
    outer loop
      vertex 2.6071 2.3628 5.1
      vertex 2.6071 2.1372 5.1
      vertex 2.62827 2.02618 5.1
    endloop
  endfacet
  facet normal 0 -0 1
    outer loop
      vertex 2.6071 2.1372 5.1
      vertex 2.6071 2.3628 5.1
      vertex 2.6 2.25 5.1
    endloop
  endfacet
  facet normal -0.998025 0.0628189 0
    outer loop
      vertex 2.6 2.25 5
      vertex 2.6071 2.3628 5.1
      vertex 2.6071 2.3628 5
    endloop
  endfacet
  facet normal -0.998025 0.0628189 0
    outer loop
      vertex 2.6071 2.3628 5.1
      vertex 2.6 2.25 5
      vertex 2.6 2.25 5.1
    endloop
  endfacet
  facet normal -0.587756 0.809038 0
    outer loop
      vertex 3.01776 3.00989 5
      vertex 2.92632 2.94346 5.1
      vertex 3.01776 3.00989 5.1
    endloop
  endfacet
  facet normal -0.587756 0.809038 0
    outer loop
      vertex 2.92632 2.94346 5.1
      vertex 3.01776 3.00989 5
      vertex 2.92632 2.94346 5
    endloop
  endfacet
  facet normal 0.904843 -0.425746 0
    outer loop
      vertex 4.28868 1.81642 5.1
      vertex 4.3368 1.91869 5
      vertex 4.3368 1.91869 5.1
    endloop
  endfacet
  facet normal 0.904843 -0.425746 0
    outer loop
      vertex 4.3368 1.91869 5
      vertex 4.28868 1.81642 5.1
      vertex 4.28868 1.81642 5
    endloop
  endfacet
  facet normal 0.951071 -0.308972 0
    outer loop
      vertex 4.3368 1.91869 5.1
      vertex 4.37172 2.02618 5
      vertex 4.37172 2.02618 5.1
    endloop
  endfacet
  facet normal 0.951071 -0.308972 0
    outer loop
      vertex 4.37172 2.02618 5
      vertex 4.3368 1.91869 5.1
      vertex 4.3368 1.91869 5
    endloop
  endfacet
  facet normal 0.982284 -0.187397 0
    outer loop
      vertex 4.37172 2.02618 5.1
      vertex 4.3929 2.1372 5
      vertex 4.3929 2.1372 5.1
    endloop
  endfacet
  facet normal 0.982284 -0.187397 0
    outer loop
      vertex 4.3929 2.1372 5
      vertex 4.37172 2.02618 5.1
      vertex 4.37172 2.02618 5
    endloop
  endfacet
  facet normal 0.844335 -0.535816 0
    outer loop
      vertex 4.22812 1.72099 5.1
      vertex 4.28868 1.81642 5
      vertex 4.28868 1.81642 5.1
    endloop
  endfacet
  facet normal 0.844335 -0.535816 0
    outer loop
      vertex 4.28868 1.81642 5
      vertex 4.22812 1.72099 5.1
      vertex 4.22812 1.72099 5
    endloop
  endfacet
  facet normal -0.36817 -0.929759 0
    outer loop
      vertex 3.1168 1.43566 5
      vertex 3.22188 1.39405 5.1
      vertex 3.1168 1.43566 5.1
    endloop
  endfacet
  facet normal -0.36817 -0.929759 -0
    outer loop
      vertex 3.22188 1.39405 5.1
      vertex 3.1168 1.43566 5
      vertex 3.22188 1.39405 5
    endloop
  endfacet
  facet normal -0.125287 -0.992121 0
    outer loop
      vertex 3.33136 1.36594 5
      vertex 3.44349 1.35178 5.1
      vertex 3.33136 1.36594 5.1
    endloop
  endfacet
  facet normal -0.125287 -0.992121 -0
    outer loop
      vertex 3.44349 1.35178 5.1
      vertex 3.33136 1.36594 5
      vertex 3.44349 1.35178 5
    endloop
  endfacet
  facet normal -0.770465 -0.637483 0
    outer loop
      vertex 2.84393 1.63391 5
      vertex 2.77188 1.72099 5.1
      vertex 2.77188 1.72099 5
    endloop
  endfacet
  facet normal -0.770465 -0.637483 0
    outer loop
      vertex 2.77188 1.72099 5.1
      vertex 2.84393 1.63391 5
      vertex 2.84393 1.63391 5.1
    endloop
  endfacet
  facet normal 0.587756 0.809038 -0
    outer loop
      vertex 4.07368 5.44346 5
      vertex 3.98224 5.50989 5.1
      vertex 4.07368 5.44346 5.1
    endloop
  endfacet
  facet normal 0.587756 0.809038 0
    outer loop
      vertex 3.98224 5.50989 5.1
      vertex 4.07368 5.44346 5
      vertex 3.98224 5.50989 5
    endloop
  endfacet
  facet normal -0.248692 -0.968582 0
    outer loop
      vertex 3.22188 3.89405 5
      vertex 3.33136 3.86594 5.1
      vertex 3.22188 3.89405 5.1
    endloop
  endfacet
  facet normal -0.248692 -0.968582 -0
    outer loop
      vertex 3.33136 3.86594 5.1
      vertex 3.22188 3.89405 5
      vertex 3.33136 3.86594 5
    endloop
  endfacet
  facet normal -0.36817 0.929759 0
    outer loop
      vertex 3.22188 5.60595 5
      vertex 3.1168 5.56434 5.1
      vertex 3.22188 5.60595 5.1
    endloop
  endfacet
  facet normal -0.36817 0.929759 0
    outer loop
      vertex 3.1168 5.56434 5.1
      vertex 3.22188 5.60595 5
      vertex 3.1168 5.56434 5
    endloop
  endfacet
  facet normal -0.904843 0.425746 0
    outer loop
      vertex 2.6632 5.08131 5
      vertex 2.71132 5.18358 5.1
      vertex 2.71132 5.18358 5
    endloop
  endfacet
  facet normal -0.904843 0.425746 0
    outer loop
      vertex 2.71132 5.18358 5.1
      vertex 2.6632 5.08131 5
      vertex 2.6632 5.08131 5.1
    endloop
  endfacet
  facet normal -0.844335 -0.535816 0
    outer loop
      vertex 2.77188 4.22099 5
      vertex 2.71132 4.31642 5.1
      vertex 2.71132 4.31642 5
    endloop
  endfacet
  facet normal -0.844335 -0.535816 0
    outer loop
      vertex 2.71132 4.31642 5.1
      vertex 2.77188 4.22099 5
      vertex 2.77188 4.22099 5.1
    endloop
  endfacet
  facet normal 0.951071 0.308972 0
    outer loop
      vertex 4.37172 4.97382 5.1
      vertex 4.3368 5.08131 5
      vertex 4.3368 5.08131 5.1
    endloop
  endfacet
  facet normal 0.951071 0.308972 0
    outer loop
      vertex 4.3368 5.08131 5
      vertex 4.37172 4.97382 5.1
      vertex 4.37172 4.97382 5
    endloop
  endfacet
  facet normal 0.904843 0.425746 0
    outer loop
      vertex 4.3368 5.08131 5.1
      vertex 4.28868 5.18358 5
      vertex 4.28868 5.18358 5.1
    endloop
  endfacet
  facet normal 0.904843 0.425746 0
    outer loop
      vertex 4.28868 5.18358 5
      vertex 4.3368 5.08131 5.1
      vertex 4.3368 5.08131 5
    endloop
  endfacet
  facet normal 0.68455 0.728966 -0
    outer loop
      vertex 4.15607 5.36609 5
      vertex 4.07368 5.44346 5.1
      vertex 4.15607 5.36609 5.1
    endloop
  endfacet
  facet normal 0.68455 0.728966 0
    outer loop
      vertex 4.07368 5.44346 5.1
      vertex 4.15607 5.36609 5
      vertex 4.07368 5.44346 5
    endloop
  endfacet
  facet normal 0.481769 0.876298 -0
    outer loop
      vertex 3.98224 5.50989 5
      vertex 3.8832 5.56434 5.1
      vertex 3.98224 5.50989 5.1
    endloop
  endfacet
  facet normal 0.481769 0.876298 0
    outer loop
      vertex 3.8832 5.56434 5.1
      vertex 3.98224 5.50989 5
      vertex 3.8832 5.56434 5
    endloop
  endfacet
  facet normal 0 1 -0
    outer loop
      vertex 3.55651 5.64822 5
      vertex 3.44349 5.64822 5.1
      vertex 3.55651 5.64822 5.1
    endloop
  endfacet
  facet normal 0 1 0
    outer loop
      vertex 3.44349 5.64822 5.1
      vertex 3.55651 5.64822 5
      vertex 3.44349 5.64822 5
    endloop
  endfacet
  facet normal 0.125287 0.992121 -0
    outer loop
      vertex 3.66864 5.63406 5
      vertex 3.55651 5.64822 5.1
      vertex 3.66864 5.63406 5.1
    endloop
  endfacet
  facet normal 0.125287 0.992121 0
    outer loop
      vertex 3.55651 5.64822 5.1
      vertex 3.66864 5.63406 5
      vertex 3.55651 5.64822 5
    endloop
  endfacet
  facet normal -0.998025 -0.0628189 0
    outer loop
      vertex 2.6071 4.6372 5
      vertex 2.6 4.75 5.1
      vertex 2.6 4.75 5
    endloop
  endfacet
  facet normal -0.998025 -0.0628189 0
    outer loop
      vertex 2.6 4.75 5.1
      vertex 2.6071 4.6372 5
      vertex 2.6071 4.6372 5.1
    endloop
  endfacet
  facet normal -0.770465 0.637483 0
    outer loop
      vertex 2.77188 5.27901 5
      vertex 2.84393 5.36609 5.1
      vertex 2.84393 5.36609 5
    endloop
  endfacet
  facet normal -0.770465 0.637483 0
    outer loop
      vertex 2.84393 5.36609 5.1
      vertex 2.77188 5.27901 5
      vertex 2.77188 5.27901 5.1
    endloop
  endfacet
  facet normal -0.481769 0.876298 0
    outer loop
      vertex 3.1168 5.56434 5
      vertex 3.01776 5.50989 5.1
      vertex 3.1168 5.56434 5.1
    endloop
  endfacet
  facet normal -0.481769 0.876298 0
    outer loop
      vertex 3.01776 5.50989 5.1
      vertex 3.1168 5.56434 5
      vertex 3.01776 5.50989 5
    endloop
  endfacet
  facet normal -0.587756 0.809038 0
    outer loop
      vertex 3.01776 5.50989 5
      vertex 2.92632 5.44346 5.1
      vertex 3.01776 5.50989 5.1
    endloop
  endfacet
  facet normal -0.587756 0.809038 0
    outer loop
      vertex 2.92632 5.44346 5.1
      vertex 3.01776 5.50989 5
      vertex 2.92632 5.44346 5
    endloop
  endfacet
  facet normal 0.36817 -0.929759 0
    outer loop
      vertex 3.77812 3.89405 5
      vertex 3.8832 3.93566 5.1
      vertex 3.77812 3.89405 5.1
    endloop
  endfacet
  facet normal 0.36817 -0.929759 0
    outer loop
      vertex 3.8832 3.93566 5.1
      vertex 3.77812 3.89405 5
      vertex 3.8832 3.93566 5
    endloop
  endfacet
  facet normal 0.904843 -0.425746 0
    outer loop
      vertex 4.28868 4.31642 5.1
      vertex 4.3368 4.41869 5
      vertex 4.3368 4.41869 5.1
    endloop
  endfacet
  facet normal 0.904843 -0.425746 0
    outer loop
      vertex 4.3368 4.41869 5
      vertex 4.28868 4.31642 5.1
      vertex 4.28868 4.31642 5
    endloop
  endfacet
  facet normal 0.68455 -0.728966 0
    outer loop
      vertex 4.07368 4.05654 5
      vertex 4.15607 4.13391 5.1
      vertex 4.07368 4.05654 5.1
    endloop
  endfacet
  facet normal 0.68455 -0.728966 0
    outer loop
      vertex 4.15607 4.13391 5.1
      vertex 4.07368 4.05654 5
      vertex 4.15607 4.13391 5
    endloop
  endfacet
  facet normal 0.481701 -0.876335 0
    outer loop
      vertex 3.8832 3.93566 5
      vertex 3.98224 3.9901 5.1
      vertex 3.8832 3.93566 5.1
    endloop
  endfacet
  facet normal 0.481701 -0.876335 0
    outer loop
      vertex 3.98224 3.9901 5.1
      vertex 3.8832 3.93566 5
      vertex 3.98224 3.9901 5
    endloop
  endfacet
  facet normal 0.770465 -0.637483 0
    outer loop
      vertex 4.15607 4.13391 5.1
      vertex 4.22812 4.22099 5
      vertex 4.22812 4.22099 5.1
    endloop
  endfacet
  facet normal 0.770465 -0.637483 0
    outer loop
      vertex 4.22812 4.22099 5
      vertex 4.15607 4.13391 5.1
      vertex 4.15607 4.13391 5
    endloop
  endfacet
  facet normal -0.587814 -0.808996 0
    outer loop
      vertex 2.92632 4.05654 5
      vertex 3.01776 3.9901 5.1
      vertex 2.92632 4.05654 5.1
    endloop
  endfacet
  facet normal -0.587814 -0.808996 -0
    outer loop
      vertex 3.01776 3.9901 5.1
      vertex 2.92632 4.05654 5
      vertex 3.01776 3.9901 5
    endloop
  endfacet
  facet normal -0.951045 -0.309052 0
    outer loop
      vertex 2.6632 4.41869 5
      vertex 2.62827 4.52618 5.1
      vertex 2.62827 4.52618 5
    endloop
  endfacet
  facet normal -0.951045 -0.309052 0
    outer loop
      vertex 2.62827 4.52618 5.1
      vertex 2.6632 4.41869 5
      vertex 2.6632 4.41869 5.1
    endloop
  endfacet
  facet normal 0.982284 0.187397 0
    outer loop
      vertex 4.3929 4.8628 5.1
      vertex 4.37172 4.97382 5
      vertex 4.37172 4.97382 5.1
    endloop
  endfacet
  facet normal 0.982284 0.187397 0
    outer loop
      vertex 4.37172 4.97382 5
      vertex 4.3929 4.8628 5.1
      vertex 4.3929 4.8628 5
    endloop
  endfacet
  facet normal 0.844335 0.535816 0
    outer loop
      vertex 4.28868 5.18358 5.1
      vertex 4.22812 5.27901 5
      vertex 4.22812 5.27901 5.1
    endloop
  endfacet
  facet normal 0.844335 0.535816 0
    outer loop
      vertex 4.22812 5.27901 5
      vertex 4.28868 5.18358 5.1
      vertex 4.28868 5.18358 5
    endloop
  endfacet
  facet normal 0.770465 0.637483 0
    outer loop
      vertex 4.22812 5.27901 5.1
      vertex 4.15607 5.36609 5
      vertex 4.15607 5.36609 5.1
    endloop
  endfacet
  facet normal 0.770465 0.637483 0
    outer loop
      vertex 4.15607 5.36609 5
      vertex 4.22812 5.27901 5.1
      vertex 4.22812 5.27901 5
    endloop
  endfacet
  facet normal 0.36817 0.929759 -0
    outer loop
      vertex 3.8832 5.56434 5
      vertex 3.77812 5.60595 5.1
      vertex 3.8832 5.56434 5.1
    endloop
  endfacet
  facet normal 0.36817 0.929759 0
    outer loop
      vertex 3.77812 5.60595 5.1
      vertex 3.8832 5.56434 5
      vertex 3.77812 5.60595 5
    endloop
  endfacet
  facet normal 0.248692 0.968582 -0
    outer loop
      vertex 3.77812 5.60595 5
      vertex 3.66864 5.63406 5.1
      vertex 3.77812 5.60595 5.1
    endloop
  endfacet
  facet normal 0.248692 0.968582 0
    outer loop
      vertex 3.66864 5.63406 5.1
      vertex 3.77812 5.60595 5
      vertex 3.66864 5.63406 5
    endloop
  endfacet
  facet normal -0.982301 0.187311 0
    outer loop
      vertex 2.6071 4.8628 5
      vertex 2.62827 4.97382 5.1
      vertex 2.62827 4.97382 5
    endloop
  endfacet
  facet normal -0.982301 0.187311 0
    outer loop
      vertex 2.62827 4.97382 5.1
      vertex 2.6071 4.8628 5
      vertex 2.6071 4.8628 5.1
    endloop
  endfacet
  facet normal -0.998025 0.0628189 0
    outer loop
      vertex 2.6 4.75 5
      vertex 2.6071 4.8628 5.1
      vertex 2.6071 4.8628 5
    endloop
  endfacet
  facet normal -0.998025 0.0628189 0
    outer loop
      vertex 2.6071 4.8628 5.1
      vertex 2.6 4.75 5
      vertex 2.6 4.75 5.1
    endloop
  endfacet
  facet normal -0.844335 0.535816 0
    outer loop
      vertex 2.71132 5.18358 5
      vertex 2.77188 5.27901 5.1
      vertex 2.77188 5.27901 5
    endloop
  endfacet
  facet normal -0.844335 0.535816 0
    outer loop
      vertex 2.77188 5.27901 5.1
      vertex 2.71132 5.18358 5
      vertex 2.71132 5.18358 5.1
    endloop
  endfacet
  facet normal -0.125287 0.992121 0
    outer loop
      vertex 3.44349 5.64822 5
      vertex 3.33136 5.63406 5.1
      vertex 3.44349 5.64822 5.1
    endloop
  endfacet
  facet normal -0.125287 0.992121 0
    outer loop
      vertex 3.33136 5.63406 5.1
      vertex 3.44349 5.64822 5
      vertex 3.33136 5.63406 5
    endloop
  endfacet
  facet normal -0.248692 0.968582 0
    outer loop
      vertex 3.33136 5.63406 5
      vertex 3.22188 5.60595 5.1
      vertex 3.33136 5.63406 5.1
    endloop
  endfacet
  facet normal -0.248692 0.968582 0
    outer loop
      vertex 3.22188 5.60595 5.1
      vertex 3.33136 5.63406 5
      vertex 3.22188 5.60595 5
    endloop
  endfacet
  facet normal -0.68455 0.728966 0
    outer loop
      vertex 2.92632 5.44346 5
      vertex 2.84393 5.36609 5.1
      vertex 2.92632 5.44346 5.1
    endloop
  endfacet
  facet normal -0.68455 0.728966 0
    outer loop
      vertex 2.84393 5.36609 5.1
      vertex 2.92632 5.44346 5
      vertex 2.84393 5.36609 5
    endloop
  endfacet
  facet normal 0.998025 0.0628189 0
    outer loop
      vertex 4.4 4.75 5.1
      vertex 4.3929 4.8628 5
      vertex 4.3929 4.8628 5.1
    endloop
  endfacet
  facet normal 0.998025 0.0628189 0
    outer loop
      vertex 4.3929 4.8628 5
      vertex 4.4 4.75 5.1
      vertex 4.4 4.75 5
    endloop
  endfacet
  facet normal 0.125287 -0.992121 0
    outer loop
      vertex 3.55651 3.85178 5
      vertex 3.66864 3.86594 5.1
      vertex 3.55651 3.85178 5.1
    endloop
  endfacet
  facet normal 0.125287 -0.992121 0
    outer loop
      vertex 3.66864 3.86594 5.1
      vertex 3.55651 3.85178 5
      vertex 3.66864 3.86594 5
    endloop
  endfacet
  facet normal 0.951071 -0.308972 0
    outer loop
      vertex 4.3368 4.41869 5.1
      vertex 4.37172 4.52618 5
      vertex 4.37172 4.52618 5.1
    endloop
  endfacet
  facet normal 0.951071 -0.308972 0
    outer loop
      vertex 4.37172 4.52618 5
      vertex 4.3368 4.41869 5.1
      vertex 4.3368 4.41869 5
    endloop
  endfacet
  facet normal 0.248692 -0.968582 0
    outer loop
      vertex 3.66864 3.86594 5
      vertex 3.77812 3.89405 5.1
      vertex 3.66864 3.86594 5.1
    endloop
  endfacet
  facet normal 0.248692 -0.968582 0
    outer loop
      vertex 3.77812 3.89405 5.1
      vertex 3.66864 3.86594 5
      vertex 3.77812 3.89405 5
    endloop
  endfacet
  facet normal 0.587814 -0.808996 0
    outer loop
      vertex 3.98224 3.9901 5
      vertex 4.07368 4.05654 5.1
      vertex 3.98224 3.9901 5.1
    endloop
  endfacet
  facet normal 0.587814 -0.808996 0
    outer loop
      vertex 4.07368 4.05654 5.1
      vertex 3.98224 3.9901 5
      vertex 4.07368 4.05654 5
    endloop
  endfacet
  facet normal 0.844335 -0.535816 0
    outer loop
      vertex 4.22812 4.22099 5.1
      vertex 4.28868 4.31642 5
      vertex 4.28868 4.31642 5.1
    endloop
  endfacet
  facet normal 0.844335 -0.535816 0
    outer loop
      vertex 4.28868 4.31642 5
      vertex 4.22812 4.22099 5.1
      vertex 4.22812 4.22099 5
    endloop
  endfacet
  facet normal 0 -1 0
    outer loop
      vertex 3.44349 3.85178 5
      vertex 3.55651 3.85178 5.1
      vertex 3.44349 3.85178 5.1
    endloop
  endfacet
  facet normal 0 -1 -0
    outer loop
      vertex 3.55651 3.85178 5.1
      vertex 3.44349 3.85178 5
      vertex 3.55651 3.85178 5
    endloop
  endfacet
  facet normal -0.481701 -0.876335 0
    outer loop
      vertex 3.01776 3.9901 5
      vertex 3.1168 3.93566 5.1
      vertex 3.01776 3.9901 5.1
    endloop
  endfacet
  facet normal -0.481701 -0.876335 -0
    outer loop
      vertex 3.1168 3.93566 5.1
      vertex 3.01776 3.9901 5
      vertex 3.1168 3.93566 5
    endloop
  endfacet
  facet normal -0.904843 -0.425746 0
    outer loop
      vertex 2.71132 4.31642 5
      vertex 2.6632 4.41869 5.1
      vertex 2.6632 4.41869 5
    endloop
  endfacet
  facet normal -0.904843 -0.425746 0
    outer loop
      vertex 2.6632 4.41869 5.1
      vertex 2.71132 4.31642 5
      vertex 2.71132 4.31642 5.1
    endloop
  endfacet
  facet normal -0.982301 -0.187311 0
    outer loop
      vertex 2.62827 4.52618 5
      vertex 2.6071 4.6372 5.1
      vertex 2.6071 4.6372 5
    endloop
  endfacet
  facet normal -0.982301 -0.187311 0
    outer loop
      vertex 2.6071 4.6372 5.1
      vertex 2.62827 4.52618 5
      vertex 2.62827 4.52618 5.1
    endloop
  endfacet
  facet normal -0.68455 -0.728966 0
    outer loop
      vertex 2.84393 4.13391 5
      vertex 2.92632 4.05654 5.1
      vertex 2.84393 4.13391 5.1
    endloop
  endfacet
  facet normal -0.68455 -0.728966 -0
    outer loop
      vertex 2.92632 4.05654 5.1
      vertex 2.84393 4.13391 5
      vertex 2.92632 4.05654 5
    endloop
  endfacet
  facet normal 0 0 1
    outer loop
      vertex 4.3929 4.8628 5.1
      vertex 4.3929 4.6372 5.1
      vertex 4.4 4.75 5.1
    endloop
  endfacet
  facet normal 0 0 1
    outer loop
      vertex 4.37172 4.97382 5.1
      vertex 4.3929 4.6372 5.1
      vertex 4.3929 4.8628 5.1
    endloop
  endfacet
  facet normal 0 0 1
    outer loop
      vertex 4.37172 4.97382 5.1
      vertex 4.37172 4.52618 5.1
      vertex 4.3929 4.6372 5.1
    endloop
  endfacet
  facet normal 0 0 1
    outer loop
      vertex 4.3368 5.08131 5.1
      vertex 4.37172 4.52618 5.1
      vertex 4.37172 4.97382 5.1
    endloop
  endfacet
  facet normal 0 0 1
    outer loop
      vertex 4.3368 5.08131 5.1
      vertex 4.3368 4.41869 5.1
      vertex 4.37172 4.52618 5.1
    endloop
  endfacet
  facet normal 0 0 1
    outer loop
      vertex 4.28868 5.18358 5.1
      vertex 4.3368 4.41869 5.1
      vertex 4.3368 5.08131 5.1
    endloop
  endfacet
  facet normal 0 0 1
    outer loop
      vertex 4.28868 5.18358 5.1
      vertex 4.28868 4.31642 5.1
      vertex 4.3368 4.41869 5.1
    endloop
  endfacet
  facet normal 0 0 1
    outer loop
      vertex 4.22812 5.27901 5.1
      vertex 4.28868 4.31642 5.1
      vertex 4.28868 5.18358 5.1
    endloop
  endfacet
  facet normal 0 0 1
    outer loop
      vertex 4.22812 5.27901 5.1
      vertex 4.22812 4.22099 5.1
      vertex 4.28868 4.31642 5.1
    endloop
  endfacet
  facet normal 0 0 1
    outer loop
      vertex 4.15607 5.36609 5.1
      vertex 4.22812 4.22099 5.1
      vertex 4.22812 5.27901 5.1
    endloop
  endfacet
  facet normal 0 0 1
    outer loop
      vertex 4.15607 5.36609 5.1
      vertex 4.15607 4.13391 5.1
      vertex 4.22812 4.22099 5.1
    endloop
  endfacet
  facet normal 0 0 1
    outer loop
      vertex 4.07368 5.44346 5.1
      vertex 4.15607 4.13391 5.1
      vertex 4.15607 5.36609 5.1
    endloop
  endfacet
  facet normal 0 0 1
    outer loop
      vertex 4.07368 5.44346 5.1
      vertex 4.07368 4.05654 5.1
      vertex 4.15607 4.13391 5.1
    endloop
  endfacet
  facet normal 0 0 1
    outer loop
      vertex 3.98224 5.50989 5.1
      vertex 4.07368 4.05654 5.1
      vertex 4.07368 5.44346 5.1
    endloop
  endfacet
  facet normal 0 0 1
    outer loop
      vertex 3.98224 5.50989 5.1
      vertex 3.98224 3.9901 5.1
      vertex 4.07368 4.05654 5.1
    endloop
  endfacet
  facet normal 0 0 1
    outer loop
      vertex 3.8832 5.56434 5.1
      vertex 3.98224 3.9901 5.1
      vertex 3.98224 5.50989 5.1
    endloop
  endfacet
  facet normal 0 0 1
    outer loop
      vertex 3.8832 5.56434 5.1
      vertex 3.8832 3.93566 5.1
      vertex 3.98224 3.9901 5.1
    endloop
  endfacet
  facet normal 0 0 1
    outer loop
      vertex 3.77812 5.60595 5.1
      vertex 3.8832 3.93566 5.1
      vertex 3.8832 5.56434 5.1
    endloop
  endfacet
  facet normal 0 0 1
    outer loop
      vertex 3.77812 5.60595 5.1
      vertex 3.77812 3.89405 5.1
      vertex 3.8832 3.93566 5.1
    endloop
  endfacet
  facet normal 0 0 1
    outer loop
      vertex 3.66864 5.63406 5.1
      vertex 3.77812 3.89405 5.1
      vertex 3.77812 5.60595 5.1
    endloop
  endfacet
  facet normal 0 0 1
    outer loop
      vertex 3.66864 5.63406 5.1
      vertex 3.66864 3.86594 5.1
      vertex 3.77812 3.89405 5.1
    endloop
  endfacet
  facet normal 0 0 1
    outer loop
      vertex 3.55651 5.64822 5.1
      vertex 3.66864 3.86594 5.1
      vertex 3.66864 5.63406 5.1
    endloop
  endfacet
  facet normal 0 0 1
    outer loop
      vertex 3.55651 5.64822 5.1
      vertex 3.55651 3.85178 5.1
      vertex 3.66864 3.86594 5.1
    endloop
  endfacet
  facet normal -0 0 1
    outer loop
      vertex 3.44349 5.64822 5.1
      vertex 3.55651 3.85178 5.1
      vertex 3.55651 5.64822 5.1
    endloop
  endfacet
  facet normal 0 0 1
    outer loop
      vertex 3.44349 5.64822 5.1
      vertex 3.44349 3.85178 5.1
      vertex 3.55651 3.85178 5.1
    endloop
  endfacet
  facet normal -0 0 1
    outer loop
      vertex 3.33136 5.63406 5.1
      vertex 3.44349 3.85178 5.1
      vertex 3.44349 5.64822 5.1
    endloop
  endfacet
  facet normal 0 0 1
    outer loop
      vertex 3.33136 5.63406 5.1
      vertex 3.33136 3.86594 5.1
      vertex 3.44349 3.85178 5.1
    endloop
  endfacet
  facet normal -0 0 1
    outer loop
      vertex 3.22188 5.60595 5.1
      vertex 3.33136 3.86594 5.1
      vertex 3.33136 5.63406 5.1
    endloop
  endfacet
  facet normal 0 0 1
    outer loop
      vertex 3.22188 5.60595 5.1
      vertex 3.22188 3.89405 5.1
      vertex 3.33136 3.86594 5.1
    endloop
  endfacet
  facet normal -0 0 1
    outer loop
      vertex 3.1168 5.56434 5.1
      vertex 3.22188 3.89405 5.1
      vertex 3.22188 5.60595 5.1
    endloop
  endfacet
  facet normal 0 0 1
    outer loop
      vertex 3.1168 5.56434 5.1
      vertex 3.1168 3.93566 5.1
      vertex 3.22188 3.89405 5.1
    endloop
  endfacet
  facet normal -0 0 1
    outer loop
      vertex 3.01776 5.50989 5.1
      vertex 3.1168 3.93566 5.1
      vertex 3.1168 5.56434 5.1
    endloop
  endfacet
  facet normal 0 0 1
    outer loop
      vertex 3.01776 5.50989 5.1
      vertex 3.01776 3.9901 5.1
      vertex 3.1168 3.93566 5.1
    endloop
  endfacet
  facet normal -0 0 1
    outer loop
      vertex 2.92632 5.44346 5.1
      vertex 3.01776 3.9901 5.1
      vertex 3.01776 5.50989 5.1
    endloop
  endfacet
  facet normal 0 0 1
    outer loop
      vertex 2.92632 5.44346 5.1
      vertex 2.92632 4.05654 5.1
      vertex 3.01776 3.9901 5.1
    endloop
  endfacet
  facet normal -0 0 1
    outer loop
      vertex 2.84393 5.36609 5.1
      vertex 2.92632 4.05654 5.1
      vertex 2.92632 5.44346 5.1
    endloop
  endfacet
  facet normal 0 0 1
    outer loop
      vertex 2.84393 5.36609 5.1
      vertex 2.84393 4.13391 5.1
      vertex 2.92632 4.05654 5.1
    endloop
  endfacet
  facet normal -0 0 1
    outer loop
      vertex 2.77188 5.27901 5.1
      vertex 2.84393 4.13391 5.1
      vertex 2.84393 5.36609 5.1
    endloop
  endfacet
  facet normal 0 0 1
    outer loop
      vertex 2.77188 5.27901 5.1
      vertex 2.77188 4.22099 5.1
      vertex 2.84393 4.13391 5.1
    endloop
  endfacet
  facet normal -0 0 1
    outer loop
      vertex 2.71132 5.18358 5.1
      vertex 2.77188 4.22099 5.1
      vertex 2.77188 5.27901 5.1
    endloop
  endfacet
  facet normal 0 0 1
    outer loop
      vertex 2.71132 5.18358 5.1
      vertex 2.71132 4.31642 5.1
      vertex 2.77188 4.22099 5.1
    endloop
  endfacet
  facet normal -0 0 1
    outer loop
      vertex 2.6632 5.08131 5.1
      vertex 2.71132 4.31642 5.1
      vertex 2.71132 5.18358 5.1
    endloop
  endfacet
  facet normal 0 0 1
    outer loop
      vertex 2.6632 5.08131 5.1
      vertex 2.6632 4.41869 5.1
      vertex 2.71132 4.31642 5.1
    endloop
  endfacet
  facet normal -0 0 1
    outer loop
      vertex 2.62827 4.97382 5.1
      vertex 2.6632 4.41869 5.1
      vertex 2.6632 5.08131 5.1
    endloop
  endfacet
  facet normal 0 0 1
    outer loop
      vertex 2.62827 4.97382 5.1
      vertex 2.62827 4.52618 5.1
      vertex 2.6632 4.41869 5.1
    endloop
  endfacet
  facet normal -0 0 1
    outer loop
      vertex 2.6071 4.8628 5.1
      vertex 2.62827 4.52618 5.1
      vertex 2.62827 4.97382 5.1
    endloop
  endfacet
  facet normal 0 0 1
    outer loop
      vertex 2.6071 4.8628 5.1
      vertex 2.6071 4.6372 5.1
      vertex 2.62827 4.52618 5.1
    endloop
  endfacet
  facet normal 0 -0 1
    outer loop
      vertex 2.6071 4.6372 5.1
      vertex 2.6071 4.8628 5.1
      vertex 2.6 4.75 5.1
    endloop
  endfacet
  facet normal -0.951045 0.309052 0
    outer loop
      vertex 2.62827 4.97382 5
      vertex 2.6632 5.08131 5.1
      vertex 2.6632 5.08131 5
    endloop
  endfacet
  facet normal -0.951045 0.309052 0
    outer loop
      vertex 2.6632 5.08131 5.1
      vertex 2.62827 4.97382 5
      vertex 2.62827 4.97382 5.1
    endloop
  endfacet
  facet normal 0.982284 -0.187397 0
    outer loop
      vertex 4.37172 4.52618 5.1
      vertex 4.3929 4.6372 5
      vertex 4.3929 4.6372 5.1
    endloop
  endfacet
  facet normal 0.982284 -0.187397 0
    outer loop
      vertex 4.3929 4.6372 5
      vertex 4.37172 4.52618 5.1
      vertex 4.37172 4.52618 5
    endloop
  endfacet
  facet normal 0.998025 -0.0628189 0
    outer loop
      vertex 4.3929 4.6372 5.1
      vertex 4.4 4.75 5
      vertex 4.4 4.75 5.1
    endloop
  endfacet
  facet normal 0.998025 -0.0628189 0
    outer loop
      vertex 4.4 4.75 5
      vertex 4.3929 4.6372 5.1
      vertex 4.3929 4.6372 5
    endloop
  endfacet
  facet normal -0.125287 -0.992121 0
    outer loop
      vertex 3.33136 3.86594 5
      vertex 3.44349 3.85178 5.1
      vertex 3.33136 3.86594 5.1
    endloop
  endfacet
  facet normal -0.125287 -0.992121 -0
    outer loop
      vertex 3.44349 3.85178 5.1
      vertex 3.33136 3.86594 5
      vertex 3.44349 3.85178 5
    endloop
  endfacet
  facet normal -0.36817 -0.929759 0
    outer loop
      vertex 3.1168 3.93566 5
      vertex 3.22188 3.89405 5.1
      vertex 3.1168 3.93566 5.1
    endloop
  endfacet
  facet normal -0.36817 -0.929759 -0
    outer loop
      vertex 3.22188 3.89405 5.1
      vertex 3.1168 3.93566 5
      vertex 3.22188 3.89405 5
    endloop
  endfacet
  facet normal -0.770465 -0.637483 0
    outer loop
      vertex 2.84393 4.13391 5
      vertex 2.77188 4.22099 5.1
      vertex 2.77188 4.22099 5
    endloop
  endfacet
  facet normal -0.770465 -0.637483 0
    outer loop
      vertex 2.77188 4.22099 5.1
      vertex 2.84393 4.13391 5
      vertex 2.84393 4.13391 5.1
    endloop
  endfacet
endsolid OpenSCAD_Model
